<svg width="21" height="22" viewBox="0 0 21 22" fill="none" xmlns="http://www.w3.org/2000/svg">
<path fill-rule="evenodd" clip-rule="evenodd" d="M14.4185 20.4998H6.0707C3.00434 20.4998 0.651937 19.3922 1.32013 14.9346L2.09816 8.89339C2.51006 6.66913 3.92883 5.81787 5.17368 5.81787H15.3522C16.6153 5.81787 17.9517 6.7332 18.4277 8.89339L19.2057 14.9346C19.7732 18.8888 17.4849 20.4998 14.4185 20.4998Z" stroke="#19020E" stroke-width="1.5" stroke-linecap="round" stroke-linejoin="round"/>
<path d="M14.5558 5.59824C14.5558 3.21216 12.6215 1.27787 10.2354 1.27787V1.27787C9.0864 1.273 7.98279 1.72603 7.1686 2.53679C6.35441 3.34754 5.89672 4.44923 5.89673 5.59824H5.89673" stroke="#19020E" stroke-width="1.5" stroke-linecap="round" stroke-linejoin="round"/>
<path d="M13.2011 10.1017H13.1554" stroke="#19020E" stroke-width="1.5" stroke-linecap="round" stroke-linejoin="round"/>
<path d="M7.37044 10.1017H7.32468" stroke="#19020E" stroke-width="1.5" stroke-linecap="round" stroke-linejoin="round"/>
</svg>
