<svg width="390" height="250" viewBox="0 0 390 250" fill="none" xmlns="http://www.w3.org/2000/svg">
<g filter="url(#filter0_d_529_276)">
<rect x="31" y="40" width="328" height="130" rx="22" fill="#19020E"/>
</g>
<path d="M67.76 92C67.6427 92 67.552 91.968 67.488 91.904C67.424 91.8293 67.392 91.7387 67.392 91.632V81.184C67.392 81.0667 67.424 80.976 67.488 80.912C67.552 80.8373 67.6427 80.8 67.76 80.8H72.144C72.944 80.8 73.5947 80.9333 74.096 81.2C74.608 81.456 74.9813 81.808 75.216 82.256C75.4613 82.704 75.584 83.2053 75.584 83.76C75.584 84.1973 75.5093 84.576 75.36 84.896C75.2213 85.2053 75.0453 85.4613 74.832 85.664C74.6187 85.856 74.4107 86.0053 74.208 86.112C74.624 86.3147 74.992 86.6453 75.312 87.104C75.6427 87.5627 75.808 88.1173 75.808 88.768C75.808 89.3547 75.6747 89.8933 75.408 90.384C75.1413 90.8747 74.7413 91.2693 74.208 91.568C73.6853 91.856 73.0347 92 72.256 92H67.76ZM68.96 90.704H72.048C72.7413 90.704 73.2747 90.5173 73.648 90.144C74.0213 89.7707 74.208 89.312 74.208 88.768C74.208 88.2027 74.0213 87.7387 73.648 87.376C73.2747 87.0027 72.7413 86.816 72.048 86.816H68.96V90.704ZM68.96 85.536H71.904C72.5867 85.536 73.104 85.3813 73.456 85.072C73.808 84.752 73.984 84.32 73.984 83.776C73.984 83.232 73.808 82.816 73.456 82.528C73.104 82.24 72.5867 82.096 71.904 82.096H68.96V85.536ZM80.1915 92.16C79.6582 92.16 79.1728 92.0533 78.7355 91.84C78.2982 91.6267 77.9462 91.3387 77.6795 90.976C77.4128 90.6133 77.2795 90.2027 77.2795 89.744C77.2795 89.008 77.5782 88.4213 78.1755 87.984C78.7728 87.5467 79.5515 87.2587 80.5115 87.12L82.8955 86.784V86.32C82.8955 85.808 82.7462 85.408 82.4475 85.12C82.1595 84.832 81.6848 84.688 81.0235 84.688C80.5435 84.688 80.1542 84.784 79.8555 84.976C79.5675 85.168 79.3648 85.4133 79.2475 85.712C79.1835 85.872 79.0715 85.952 78.9115 85.952H78.1915C78.0742 85.952 77.9835 85.92 77.9195 85.856C77.8662 85.7813 77.8395 85.696 77.8395 85.6C77.8395 85.44 77.8982 85.2427 78.0155 85.008C78.1435 84.7733 78.3355 84.544 78.5915 84.32C78.8475 84.096 79.1728 83.9093 79.5675 83.76C79.9728 83.6 80.4635 83.52 81.0395 83.52C81.6795 83.52 82.2182 83.6053 82.6555 83.776C83.0928 83.936 83.4342 84.1547 83.6795 84.432C83.9355 84.7093 84.1168 85.024 84.2235 85.376C84.3408 85.728 84.3995 86.0853 84.3995 86.448V91.632C84.3995 91.7387 84.3622 91.8293 84.2875 91.904C84.2235 91.968 84.1382 92 84.0315 92H83.2955C83.1782 92 83.0875 91.968 83.0235 91.904C82.9595 91.8293 82.9275 91.7387 82.9275 91.632V90.944C82.7888 91.136 82.6022 91.328 82.3675 91.52C82.1328 91.7013 81.8395 91.856 81.4875 91.984C81.1355 92.1013 80.7035 92.16 80.1915 92.16ZM80.5275 90.96C80.9648 90.96 81.3648 90.8693 81.7275 90.688C82.0902 90.496 82.3728 90.2027 82.5755 89.808C82.7888 89.4133 82.8955 88.9173 82.8955 88.32V87.872L81.0395 88.144C80.2822 88.2507 79.7115 88.432 79.3275 88.688C78.9435 88.9333 78.7515 89.248 78.7515 89.632C78.7515 89.9307 78.8368 90.1813 79.0075 90.384C79.1888 90.576 79.4128 90.72 79.6795 90.816C79.9568 90.912 80.2395 90.96 80.5275 90.96ZM89.8695 92C89.2722 92 88.7868 91.888 88.4135 91.664C88.0402 91.4293 87.7682 91.104 87.5975 90.688C87.4268 90.2613 87.3415 89.76 87.3415 89.184V84.96H86.0935C85.9868 84.96 85.8962 84.928 85.8215 84.864C85.7575 84.7893 85.7255 84.6987 85.7255 84.592V84.048C85.7255 83.9413 85.7575 83.856 85.8215 83.792C85.8962 83.7173 85.9868 83.68 86.0935 83.68H87.3415V81.008C87.3415 80.9013 87.3735 80.816 87.4375 80.752C87.5122 80.6773 87.6028 80.64 87.7095 80.64H88.4615C88.5682 80.64 88.6535 80.6773 88.7175 80.752C88.7922 80.816 88.8295 80.9013 88.8295 81.008V83.68H90.8135C90.9202 83.68 91.0055 83.7173 91.0695 83.792C91.1442 83.856 91.1815 83.9413 91.1815 84.048V84.592C91.1815 84.6987 91.1442 84.7893 91.0695 84.864C91.0055 84.928 90.9202 84.96 90.8135 84.96H88.8295V89.072C88.8295 89.5733 88.9148 89.968 89.0855 90.256C89.2562 90.544 89.5602 90.688 89.9975 90.688H90.9735C91.0802 90.688 91.1655 90.7253 91.2295 90.8C91.3042 90.864 91.3415 90.9493 91.3415 91.056V91.632C91.3415 91.7387 91.3042 91.8293 91.2295 91.904C91.1655 91.968 91.0802 92 90.9735 92H89.8695ZM96.1195 92C95.5222 92 95.0368 91.888 94.6635 91.664C94.2902 91.4293 94.0182 91.104 93.8475 90.688C93.6768 90.2613 93.5915 89.76 93.5915 89.184V84.96H92.3435C92.2368 84.96 92.1462 84.928 92.0715 84.864C92.0075 84.7893 91.9755 84.6987 91.9755 84.592V84.048C91.9755 83.9413 92.0075 83.856 92.0715 83.792C92.1462 83.7173 92.2368 83.68 92.3435 83.68H93.5915V81.008C93.5915 80.9013 93.6235 80.816 93.6875 80.752C93.7622 80.6773 93.8528 80.64 93.9595 80.64H94.7115C94.8182 80.64 94.9035 80.6773 94.9675 80.752C95.0422 80.816 95.0795 80.9013 95.0795 81.008V83.68H97.0635C97.1702 83.68 97.2555 83.7173 97.3195 83.792C97.3942 83.856 97.4315 83.9413 97.4315 84.048V84.592C97.4315 84.6987 97.3942 84.7893 97.3195 84.864C97.2555 84.928 97.1702 84.96 97.0635 84.96H95.0795V89.072C95.0795 89.5733 95.1648 89.968 95.3355 90.256C95.5062 90.544 95.8102 90.688 96.2475 90.688H97.2235C97.3302 90.688 97.4155 90.7253 97.4795 90.8C97.5542 90.864 97.5915 90.9493 97.5915 91.056V91.632C97.5915 91.7387 97.5542 91.8293 97.4795 91.904C97.4155 91.968 97.3302 92 97.2235 92H96.1195ZM102.434 92.16C101.335 92.16 100.46 91.824 99.8095 91.152C99.1588 90.4693 98.8015 89.5413 98.7375 88.368C98.7268 88.2293 98.7215 88.0533 98.7215 87.84C98.7215 87.616 98.7268 87.4347 98.7375 87.296C98.7802 86.5387 98.9562 85.8773 99.2655 85.312C99.5748 84.736 99.9962 84.2933 100.53 83.984C101.074 83.6747 101.708 83.52 102.434 83.52C103.244 83.52 103.922 83.6907 104.466 84.032C105.02 84.3733 105.442 84.8587 105.73 85.488C106.018 86.1173 106.161 86.8533 106.161 87.696V87.968C106.161 88.0853 106.124 88.176 106.05 88.24C105.986 88.304 105.9 88.336 105.794 88.336H100.258C100.258 88.3467 100.258 88.368 100.258 88.4C100.258 88.432 100.258 88.4587 100.258 88.48C100.279 88.9173 100.375 89.328 100.546 89.712C100.716 90.0853 100.962 90.3893 101.282 90.624C101.602 90.8587 101.986 90.976 102.434 90.976C102.818 90.976 103.138 90.9173 103.394 90.8C103.65 90.6827 103.858 90.5547 104.018 90.416C104.178 90.2667 104.284 90.1547 104.338 90.08C104.434 89.9413 104.508 89.8613 104.562 89.84C104.615 89.808 104.7 89.792 104.818 89.792H105.586C105.692 89.792 105.778 89.824 105.842 89.888C105.916 89.9413 105.948 90.0213 105.938 90.128C105.927 90.288 105.842 90.4853 105.682 90.72C105.522 90.944 105.292 91.168 104.994 91.392C104.695 91.616 104.332 91.8027 103.906 91.952C103.479 92.0907 102.988 92.16 102.434 92.16ZM100.258 87.232H104.642V87.184C104.642 86.704 104.551 86.2773 104.37 85.904C104.199 85.5307 103.948 85.2373 103.618 85.024C103.287 84.8 102.892 84.688 102.434 84.688C101.975 84.688 101.58 84.8 101.25 85.024C100.93 85.2373 100.684 85.5307 100.514 85.904C100.343 86.2773 100.258 86.704 100.258 87.184V87.232ZM108.443 92C108.336 92 108.245 91.968 108.171 91.904C108.107 91.8293 108.075 91.7387 108.075 91.632V84.064C108.075 83.9573 108.107 83.8667 108.171 83.792C108.245 83.7173 108.336 83.68 108.443 83.68H109.179C109.285 83.68 109.376 83.7173 109.451 83.792C109.525 83.8667 109.563 83.9573 109.563 84.064V84.768C109.776 84.4053 110.069 84.1333 110.443 83.952C110.816 83.7707 111.264 83.68 111.787 83.68H112.427C112.533 83.68 112.619 83.7173 112.683 83.792C112.747 83.856 112.779 83.9413 112.779 84.048V84.704C112.779 84.8107 112.747 84.896 112.683 84.96C112.619 85.024 112.533 85.056 112.427 85.056H111.467C110.891 85.056 110.437 85.2267 110.107 85.568C109.776 85.8987 109.611 86.352 109.611 86.928V91.632C109.611 91.7387 109.573 91.8293 109.499 91.904C109.424 91.968 109.333 92 109.227 92H108.443ZM115.609 95.04C115.523 95.04 115.449 95.008 115.385 94.944C115.321 94.88 115.289 94.8053 115.289 94.72C115.289 94.6773 115.294 94.6347 115.305 94.592C115.315 94.5493 115.337 94.496 115.369 94.432L116.601 91.504L113.545 84.288C113.491 84.16 113.465 84.0693 113.465 84.016C113.465 83.92 113.497 83.84 113.561 83.776C113.625 83.712 113.705 83.68 113.801 83.68H114.585C114.691 83.68 114.777 83.7067 114.841 83.76C114.905 83.8133 114.947 83.8773 114.969 83.952L117.401 89.776L119.897 83.952C119.929 83.8773 119.971 83.8133 120.025 83.76C120.089 83.7067 120.179 83.68 120.297 83.68H121.049C121.145 83.68 121.225 83.712 121.289 83.776C121.353 83.84 121.385 83.9147 121.385 84C121.385 84.0533 121.358 84.1493 121.305 84.288L116.761 94.768C116.729 94.8427 116.681 94.9067 116.617 94.96C116.563 95.0133 116.478 95.04 116.361 95.04H115.609ZM129.569 92.16C128.887 92.16 128.305 92.0107 127.825 91.712C127.356 91.4027 126.999 90.976 126.753 90.432C126.508 89.888 126.385 89.264 126.385 88.56V84.048C126.385 83.9413 126.417 83.856 126.481 83.792C126.556 83.7173 126.647 83.68 126.753 83.68H127.553C127.66 83.68 127.745 83.7173 127.809 83.792C127.884 83.856 127.921 83.9413 127.921 84.048V88.48C127.921 90.0693 128.615 90.864 130.001 90.864C130.663 90.864 131.191 90.656 131.585 90.24C131.991 89.8133 132.193 89.2267 132.193 88.48V84.048C132.193 83.9413 132.225 83.856 132.289 83.792C132.364 83.7173 132.455 83.68 132.561 83.68H133.345C133.463 83.68 133.553 83.7173 133.617 83.792C133.681 83.856 133.713 83.9413 133.713 84.048V91.632C133.713 91.7387 133.681 91.8293 133.617 91.904C133.553 91.968 133.463 92 133.345 92H132.609C132.503 92 132.412 91.968 132.337 91.904C132.273 91.8293 132.241 91.7387 132.241 91.632V90.928C131.953 91.3013 131.601 91.6 131.185 91.824C130.78 92.048 130.241 92.16 129.569 92.16ZM136.474 95.04C136.368 95.04 136.277 95.0027 136.202 94.928C136.138 94.864 136.106 94.7787 136.106 94.672V84.048C136.106 83.9413 136.138 83.856 136.202 83.792C136.277 83.7173 136.368 83.68 136.474 83.68H137.21C137.317 83.68 137.402 83.7173 137.466 83.792C137.541 83.856 137.578 83.9413 137.578 84.048V84.752C137.834 84.4 138.176 84.1067 138.602 83.872C139.029 83.6373 139.562 83.52 140.202 83.52C140.8 83.52 141.306 83.6213 141.722 83.824C142.149 84.0267 142.496 84.304 142.762 84.656C143.04 85.008 143.248 85.408 143.386 85.856C143.525 86.304 143.6 86.784 143.61 87.296C143.621 87.4667 143.626 87.648 143.626 87.84C143.626 88.032 143.621 88.2133 143.61 88.384C143.6 88.8853 143.525 89.3653 143.386 89.824C143.248 90.272 143.04 90.672 142.762 91.024C142.496 91.3653 142.149 91.6427 141.722 91.856C141.306 92.0587 140.8 92.16 140.202 92.16C139.584 92.16 139.061 92.048 138.634 91.824C138.218 91.5893 137.877 91.3013 137.61 90.96V94.672C137.61 94.7787 137.578 94.864 137.514 94.928C137.45 95.0027 137.36 95.04 137.242 95.04H136.474ZM139.866 90.864C140.421 90.864 140.853 90.7467 141.162 90.512C141.482 90.2667 141.712 89.952 141.85 89.568C141.989 89.1733 142.069 88.752 142.09 88.304C142.101 87.9947 142.101 87.6853 142.09 87.376C142.069 86.928 141.989 86.512 141.85 86.128C141.712 85.7333 141.482 85.4187 141.162 85.184C140.853 84.9387 140.421 84.816 139.866 84.816C139.344 84.816 138.917 84.9387 138.586 85.184C138.266 85.4293 138.026 85.744 137.866 86.128C137.717 86.5013 137.632 86.8853 137.61 87.28C137.6 87.4507 137.594 87.6533 137.594 87.888C137.594 88.1227 137.6 88.3307 137.61 88.512C137.621 88.8853 137.706 89.2533 137.866 89.616C138.037 89.9787 138.288 90.2773 138.618 90.512C138.949 90.7467 139.365 90.864 139.866 90.864ZM152.448 92C151.85 92 151.365 91.888 150.992 91.664C150.618 91.4293 150.346 91.104 150.176 90.688C150.005 90.2613 149.92 89.76 149.92 89.184V84.96H148.672C148.565 84.96 148.474 84.928 148.4 84.864C148.336 84.7893 148.304 84.6987 148.304 84.592V84.048C148.304 83.9413 148.336 83.856 148.4 83.792C148.474 83.7173 148.565 83.68 148.672 83.68H149.92V81.008C149.92 80.9013 149.952 80.816 150.016 80.752C150.09 80.6773 150.181 80.64 150.288 80.64H151.04C151.146 80.64 151.232 80.6773 151.296 80.752C151.37 80.816 151.408 80.9013 151.408 81.008V83.68H153.392C153.498 83.68 153.584 83.7173 153.648 83.792C153.722 83.856 153.76 83.9413 153.76 84.048V84.592C153.76 84.6987 153.722 84.7893 153.648 84.864C153.584 84.928 153.498 84.96 153.392 84.96H151.408V89.072C151.408 89.5733 151.493 89.968 151.664 90.256C151.834 90.544 152.138 90.688 152.576 90.688H153.552C153.658 90.688 153.744 90.7253 153.808 90.8C153.882 90.864 153.92 90.9493 153.92 91.056V91.632C153.92 91.7387 153.882 91.8293 153.808 91.904C153.744 91.968 153.658 92 153.552 92H152.448ZM158.858 92.16C158.047 92.16 157.37 92.0053 156.826 91.696C156.282 91.3867 155.866 90.96 155.578 90.416C155.29 89.8613 155.13 89.232 155.098 88.528C155.087 88.3467 155.082 88.1173 155.082 87.84C155.082 87.552 155.087 87.3227 155.098 87.152C155.13 86.4373 155.29 85.808 155.578 85.264C155.876 84.72 156.298 84.2933 156.842 83.984C157.386 83.6747 158.058 83.52 158.858 83.52C159.658 83.52 160.33 83.6747 160.874 83.984C161.418 84.2933 161.834 84.72 162.122 85.264C162.42 85.808 162.586 86.4373 162.618 87.152C162.628 87.3227 162.634 87.552 162.634 87.84C162.634 88.1173 162.628 88.3467 162.618 88.528C162.586 89.232 162.426 89.8613 162.138 90.416C161.85 90.96 161.434 91.3867 160.89 91.696C160.346 92.0053 159.668 92.16 158.858 92.16ZM158.858 90.928C159.519 90.928 160.047 90.72 160.442 90.304C160.836 89.8773 161.05 89.2587 161.082 88.448C161.092 88.288 161.098 88.0853 161.098 87.84C161.098 87.5947 161.092 87.392 161.082 87.232C161.05 86.4213 160.836 85.808 160.442 85.392C160.047 84.9653 159.519 84.752 158.858 84.752C158.196 84.752 157.663 84.9653 157.258 85.392C156.863 85.808 156.655 86.4213 156.634 87.232C156.623 87.392 156.618 87.5947 156.618 87.84C156.618 88.0853 156.623 88.288 156.634 88.448C156.655 89.2587 156.863 89.8773 157.258 90.304C157.663 90.72 158.196 90.928 158.858 90.928ZM172.143 92.16C171.471 92.16 170.884 92.08 170.383 91.92C169.882 91.7493 169.46 91.5253 169.119 91.248C168.778 90.9707 168.516 90.6667 168.335 90.336C168.164 90.0053 168.074 89.664 168.063 89.312C168.063 89.216 168.095 89.1413 168.159 89.088C168.223 89.0347 168.303 89.008 168.399 89.008H169.183C169.279 89.008 169.364 89.0293 169.439 89.072C169.514 89.1147 169.578 89.2053 169.631 89.344C169.738 89.728 169.919 90.0267 170.175 90.24C170.442 90.4533 170.746 90.6027 171.087 90.688C171.439 90.7627 171.791 90.8 172.143 90.8C172.879 90.8 173.476 90.624 173.935 90.272C174.394 89.92 174.623 89.4027 174.623 88.72C174.623 88.0267 174.415 87.5307 173.999 87.232C173.583 86.9333 173.007 86.784 172.271 86.784H170.751C170.644 86.784 170.554 86.752 170.479 86.688C170.415 86.624 170.383 86.5333 170.383 86.416V85.984C170.383 85.888 170.399 85.808 170.431 85.744C170.474 85.6693 170.516 85.6053 170.559 85.552L173.663 82.16H168.943C168.836 82.16 168.746 82.128 168.671 82.064C168.607 82 168.575 81.9093 168.575 81.792V81.184C168.575 81.0667 168.607 80.976 168.671 80.912C168.746 80.8373 168.836 80.8 168.943 80.8H175.327C175.444 80.8 175.535 80.8373 175.599 80.912C175.674 80.976 175.711 81.0667 175.711 81.184V81.76C175.711 81.8347 175.69 81.904 175.647 81.968C175.615 82.0213 175.578 82.0747 175.535 82.128L172.447 85.568L172.703 85.584C173.407 85.6053 174.02 85.7333 174.543 85.968C175.076 86.2027 175.487 86.5547 175.775 87.024C176.074 87.4827 176.223 88.064 176.223 88.768C176.223 89.4827 176.047 90.096 175.695 90.608C175.343 91.1093 174.858 91.4933 174.239 91.76C173.62 92.0267 172.922 92.16 172.143 92.16ZM182.666 92C182.549 92 182.458 91.968 182.394 91.904C182.33 91.8293 182.298 91.7387 182.298 91.632V81.184C182.298 81.0667 182.33 80.976 182.394 80.912C182.458 80.8373 182.549 80.8 182.666 80.8H186.298C187.397 80.8 188.282 80.9653 188.954 81.296C189.626 81.6267 190.117 82.1173 190.426 82.768C190.736 83.408 190.896 84.1973 190.906 85.136C190.917 85.616 190.922 86.0373 190.922 86.4C190.922 86.7627 190.917 87.1787 190.906 87.648C190.885 88.6293 190.72 89.4453 190.41 90.096C190.112 90.736 189.632 91.216 188.97 91.536C188.32 91.8453 187.456 92 186.378 92H182.666ZM183.866 90.64H186.298C187.034 90.64 187.621 90.5387 188.058 90.336C188.496 90.1333 188.81 89.808 189.002 89.36C189.205 88.912 189.312 88.32 189.322 87.584C189.344 87.264 189.354 86.9867 189.354 86.752C189.354 86.5067 189.354 86.2667 189.354 86.032C189.354 85.7867 189.344 85.5093 189.322 85.2C189.301 84.1653 189.056 83.4027 188.586 82.912C188.117 82.4107 187.328 82.16 186.218 82.16H183.866V90.64ZM195.442 92.16C194.908 92.16 194.423 92.0533 193.986 91.84C193.548 91.6267 193.196 91.3387 192.93 90.976C192.663 90.6133 192.53 90.2027 192.53 89.744C192.53 89.008 192.828 88.4213 193.426 87.984C194.023 87.5467 194.802 87.2587 195.762 87.12L198.146 86.784V86.32C198.146 85.808 197.996 85.408 197.698 85.12C197.41 84.832 196.935 84.688 196.274 84.688C195.794 84.688 195.404 84.784 195.106 84.976C194.818 85.168 194.615 85.4133 194.498 85.712C194.434 85.872 194.322 85.952 194.162 85.952H193.442C193.324 85.952 193.234 85.92 193.17 85.856C193.116 85.7813 193.09 85.696 193.09 85.6C193.09 85.44 193.148 85.2427 193.266 85.008C193.394 84.7733 193.586 84.544 193.842 84.32C194.098 84.096 194.423 83.9093 194.818 83.76C195.223 83.6 195.714 83.52 196.29 83.52C196.93 83.52 197.468 83.6053 197.906 83.776C198.343 83.936 198.684 84.1547 198.93 84.432C199.186 84.7093 199.367 85.024 199.474 85.376C199.591 85.728 199.65 86.0853 199.65 86.448V91.632C199.65 91.7387 199.612 91.8293 199.538 91.904C199.474 91.968 199.388 92 199.282 92H198.546C198.428 92 198.338 91.968 198.274 91.904C198.21 91.8293 198.178 91.7387 198.178 91.632V90.944C198.039 91.136 197.852 91.328 197.618 91.52C197.383 91.7013 197.09 91.856 196.738 91.984C196.386 92.1013 195.954 92.16 195.442 92.16ZM195.778 90.96C196.215 90.96 196.615 90.8693 196.978 90.688C197.34 90.496 197.623 90.2027 197.826 89.808C198.039 89.4133 198.146 88.9173 198.146 88.32V87.872L196.29 88.144C195.532 88.2507 194.962 88.432 194.578 88.688C194.194 88.9333 194.002 89.248 194.002 89.632C194.002 89.9307 194.087 90.1813 194.258 90.384C194.439 90.576 194.663 90.72 194.93 90.816C195.207 90.912 195.49 90.96 195.778 90.96ZM203.234 95.04C203.148 95.04 203.074 95.008 203.01 94.944C202.946 94.88 202.914 94.8053 202.914 94.72C202.914 94.6773 202.919 94.6347 202.93 94.592C202.94 94.5493 202.962 94.496 202.994 94.432L204.226 91.504L201.17 84.288C201.116 84.16 201.09 84.0693 201.09 84.016C201.09 83.92 201.122 83.84 201.186 83.776C201.25 83.712 201.33 83.68 201.426 83.68H202.21C202.316 83.68 202.402 83.7067 202.466 83.76C202.53 83.8133 202.572 83.8773 202.594 83.952L205.026 89.776L207.522 83.952C207.554 83.8773 207.596 83.8133 207.65 83.76C207.714 83.7067 207.804 83.68 207.922 83.68H208.674C208.77 83.68 208.85 83.712 208.914 83.776C208.978 83.84 209.01 83.9147 209.01 84C209.01 84.0533 208.983 84.1493 208.93 84.288L204.386 94.768C204.354 94.8427 204.306 94.9067 204.242 94.96C204.188 95.0133 204.103 95.04 203.986 95.04H203.234ZM213.22 92.16C212.623 92.16 212.111 92.0853 211.684 91.936C211.258 91.7867 210.911 91.6053 210.644 91.392C210.378 91.1787 210.175 90.9653 210.036 90.752C209.908 90.5387 209.839 90.368 209.828 90.24C209.818 90.1227 209.855 90.032 209.94 89.968C210.026 89.904 210.111 89.872 210.196 89.872H210.9C210.964 89.872 211.012 89.8827 211.044 89.904C211.087 89.9147 211.14 89.9573 211.204 90.032C211.343 90.1813 211.498 90.3307 211.668 90.48C211.839 90.6293 212.047 90.752 212.292 90.848C212.548 90.944 212.863 90.992 213.236 90.992C213.78 90.992 214.228 90.8907 214.58 90.688C214.932 90.4747 215.108 90.1653 215.108 89.76C215.108 89.4933 215.034 89.28 214.884 89.12C214.746 88.96 214.49 88.816 214.116 88.688C213.754 88.56 213.252 88.4267 212.612 88.288C211.972 88.1387 211.466 87.9573 211.092 87.744C210.719 87.52 210.452 87.2587 210.292 86.96C210.132 86.6507 210.052 86.304 210.052 85.92C210.052 85.5253 210.17 85.1467 210.404 84.784C210.639 84.4107 210.98 84.1067 211.428 83.872C211.887 83.6373 212.458 83.52 213.14 83.52C213.695 83.52 214.17 83.5893 214.564 83.728C214.959 83.8667 215.284 84.0427 215.54 84.256C215.796 84.4587 215.988 84.6613 216.116 84.864C216.244 85.0667 216.314 85.2373 216.324 85.376C216.335 85.4827 216.303 85.5733 216.228 85.648C216.154 85.712 216.068 85.744 215.972 85.744H215.3C215.226 85.744 215.162 85.728 215.108 85.696C215.066 85.664 215.023 85.6267 214.98 85.584C214.874 85.4453 214.746 85.3067 214.596 85.168C214.458 85.0293 214.271 84.9173 214.036 84.832C213.812 84.736 213.514 84.688 213.14 84.688C212.607 84.688 212.207 84.8 211.94 85.024C211.674 85.248 211.54 85.5307 211.54 85.872C211.54 86.0747 211.599 86.256 211.716 86.416C211.834 86.576 212.058 86.72 212.388 86.848C212.719 86.976 213.21 87.1147 213.86 87.264C214.564 87.4027 215.119 87.5893 215.524 87.824C215.93 88.0587 216.218 88.3307 216.388 88.64C216.559 88.9493 216.644 89.3067 216.644 89.712C216.644 90.16 216.511 90.5707 216.244 90.944C215.988 91.3173 215.604 91.616 215.092 91.84C214.591 92.0533 213.967 92.16 213.22 92.16Z" fill="white"/>
<path d="M70.992 128.16C70.064 128.16 69.2853 128.021 68.656 127.744C68.0267 127.456 67.5413 127.088 67.2 126.64C66.8693 126.181 66.6933 125.696 66.672 125.184C66.672 125.099 66.704 125.024 66.768 124.96C66.8427 124.885 66.928 124.848 67.024 124.848H67.84C67.968 124.848 68.064 124.88 68.128 124.944C68.192 125.008 68.2347 125.083 68.256 125.168C68.3093 125.424 68.4373 125.68 68.64 125.936C68.8533 126.181 69.1467 126.389 69.52 126.56C69.904 126.72 70.3947 126.8 70.992 126.8C71.9093 126.8 72.5813 126.64 73.008 126.32C73.4453 125.989 73.664 125.552 73.664 125.008C73.664 124.635 73.5467 124.336 73.312 124.112C73.088 123.877 72.7413 123.669 72.272 123.488C71.8027 123.307 71.1947 123.109 70.448 122.896C69.6693 122.672 69.024 122.427 68.512 122.16C68 121.893 67.616 121.563 67.36 121.168C67.1147 120.773 66.992 120.272 66.992 119.664C66.992 119.088 67.1467 118.576 67.456 118.128C67.7653 117.669 68.208 117.307 68.784 117.04C69.3707 116.773 70.08 116.64 70.912 116.64C71.5733 116.64 72.1493 116.731 72.64 116.912C73.1413 117.083 73.5573 117.317 73.888 117.616C74.2187 117.904 74.4693 118.219 74.64 118.56C74.8107 118.891 74.9013 119.216 74.912 119.536C74.912 119.611 74.8853 119.685 74.832 119.76C74.7787 119.824 74.6933 119.856 74.576 119.856H73.728C73.6533 119.856 73.5733 119.835 73.488 119.792C73.4133 119.749 73.3547 119.669 73.312 119.552C73.248 119.115 73.0027 118.747 72.576 118.448C72.1493 118.149 71.5947 118 70.912 118C70.2187 118 69.6533 118.133 69.216 118.4C68.7893 118.667 68.576 119.083 68.576 119.648C68.576 120.011 68.6773 120.315 68.88 120.56C69.0827 120.795 69.4027 121.003 69.84 121.184C70.2773 121.365 70.848 121.557 71.552 121.76C72.4053 121.995 73.104 122.245 73.648 122.512C74.192 122.768 74.592 123.093 74.848 123.488C75.1147 123.872 75.248 124.368 75.248 124.976C75.248 125.648 75.072 126.224 74.72 126.704C74.368 127.173 73.872 127.536 73.232 127.792C72.6027 128.037 71.856 128.16 70.992 128.16ZM80.3851 128C79.7878 128 79.3025 127.888 78.9291 127.664C78.5558 127.429 78.2838 127.104 78.1131 126.688C77.9425 126.261 77.8571 125.76 77.8571 125.184V120.96H76.6091C76.5025 120.96 76.4118 120.928 76.3371 120.864C76.2731 120.789 76.2411 120.699 76.2411 120.592V120.048C76.2411 119.941 76.2731 119.856 76.3371 119.792C76.4118 119.717 76.5025 119.68 76.6091 119.68H77.8571V117.008C77.8571 116.901 77.8891 116.816 77.9531 116.752C78.0278 116.677 78.1185 116.64 78.2251 116.64H78.9771C79.0838 116.64 79.1691 116.677 79.2331 116.752C79.3078 116.816 79.3451 116.901 79.3451 117.008V119.68H81.3291C81.4358 119.68 81.5211 119.717 81.5851 119.792C81.6598 119.856 81.6971 119.941 81.6971 120.048V120.592C81.6971 120.699 81.6598 120.789 81.5851 120.864C81.5211 120.928 81.4358 120.96 81.3291 120.96H79.3451V125.072C79.3451 125.573 79.4305 125.968 79.6011 126.256C79.7718 126.544 80.0758 126.688 80.5131 126.688H81.4891C81.5958 126.688 81.6811 126.725 81.7451 126.8C81.8198 126.864 81.8571 126.949 81.8571 127.056V127.632C81.8571 127.739 81.8198 127.829 81.7451 127.904C81.6811 127.968 81.5958 128 81.4891 128H80.3851ZM85.7071 128.16C85.1738 128.16 84.6885 128.053 84.2511 127.84C83.8138 127.627 83.4618 127.339 83.1951 126.976C82.9285 126.613 82.7951 126.203 82.7951 125.744C82.7951 125.008 83.0938 124.421 83.6911 123.984C84.2885 123.547 85.0671 123.259 86.0271 123.12L88.4111 122.784V122.32C88.4111 121.808 88.2618 121.408 87.9631 121.12C87.6751 120.832 87.2005 120.688 86.5391 120.688C86.0591 120.688 85.6698 120.784 85.3711 120.976C85.0831 121.168 84.8805 121.413 84.7631 121.712C84.6991 121.872 84.5871 121.952 84.4271 121.952H83.7071C83.5898 121.952 83.4991 121.92 83.4351 121.856C83.3818 121.781 83.3551 121.696 83.3551 121.6C83.3551 121.44 83.4138 121.243 83.5311 121.008C83.6591 120.773 83.8511 120.544 84.1071 120.32C84.3631 120.096 84.6885 119.909 85.0831 119.76C85.4885 119.6 85.9791 119.52 86.5551 119.52C87.1951 119.52 87.7338 119.605 88.1711 119.776C88.6085 119.936 88.9498 120.155 89.1951 120.432C89.4511 120.709 89.6325 121.024 89.7391 121.376C89.8565 121.728 89.9151 122.085 89.9151 122.448V127.632C89.9151 127.739 89.8778 127.829 89.8031 127.904C89.7391 127.968 89.6538 128 89.5471 128H88.8111C88.6938 128 88.6031 127.968 88.5391 127.904C88.4751 127.829 88.4431 127.739 88.4431 127.632V126.944C88.3045 127.136 88.1178 127.328 87.8831 127.52C87.6485 127.701 87.3551 127.856 87.0031 127.984C86.6511 128.101 86.2191 128.16 85.7071 128.16ZM86.0431 126.96C86.4805 126.96 86.8805 126.869 87.2431 126.688C87.6058 126.496 87.8885 126.203 88.0911 125.808C88.3045 125.413 88.4111 124.917 88.4111 124.32V123.872L86.5551 124.144C85.7978 124.251 85.2271 124.432 84.8431 124.688C84.4591 124.933 84.2671 125.248 84.2671 125.632C84.2671 125.931 84.3525 126.181 84.5231 126.384C84.7045 126.576 84.9285 126.72 85.1951 126.816C85.4725 126.912 85.7551 126.96 86.0431 126.96ZM92.5833 128C92.4766 128 92.3859 127.968 92.3113 127.904C92.2473 127.829 92.2153 127.739 92.2153 127.632V120.048C92.2153 119.941 92.2473 119.856 92.3113 119.792C92.3859 119.717 92.4766 119.68 92.5833 119.68H93.3353C93.4419 119.68 93.5273 119.717 93.5913 119.792C93.6659 119.856 93.7033 119.941 93.7033 120.048V120.752C93.9806 120.389 94.3273 120.096 94.7433 119.872C95.1699 119.637 95.7139 119.52 96.3753 119.52C97.0686 119.52 97.6553 119.675 98.1353 119.984C98.6259 120.283 98.9939 120.704 99.2393 121.248C99.4846 121.781 99.6073 122.405 99.6073 123.12V127.632C99.6073 127.739 99.5753 127.829 99.5113 127.904C99.4473 127.968 99.3619 128 99.2552 128H98.4553C98.3486 128 98.2579 127.968 98.1833 127.904C98.1193 127.829 98.0873 127.739 98.0873 127.632V123.2C98.0873 122.453 97.9059 121.872 97.5433 121.456C97.1806 121.029 96.6473 120.816 95.9433 120.816C95.2819 120.816 94.7486 121.029 94.3433 121.456C93.9486 121.872 93.7513 122.453 93.7513 123.2V127.632C93.7513 127.739 93.7139 127.829 93.6393 127.904C93.5753 127.968 93.4899 128 93.3832 128H92.5833ZM104.958 128.16C104.372 128.16 103.865 128.059 103.438 127.856C103.012 127.643 102.66 127.36 102.382 127.008C102.116 126.645 101.913 126.235 101.774 125.776C101.646 125.317 101.572 124.832 101.55 124.32C101.54 124.149 101.534 123.989 101.534 123.84C101.534 123.691 101.54 123.531 101.55 123.36C101.572 122.859 101.646 122.379 101.774 121.92C101.913 121.461 102.116 121.051 102.382 120.688C102.66 120.325 103.012 120.043 103.438 119.84C103.865 119.627 104.372 119.52 104.958 119.52C105.588 119.52 106.11 119.632 106.526 119.856C106.942 120.08 107.284 120.357 107.55 120.688V117.008C107.55 116.901 107.582 116.816 107.646 116.752C107.721 116.677 107.812 116.64 107.918 116.64H108.686C108.793 116.64 108.878 116.677 108.942 116.752C109.017 116.816 109.054 116.901 109.054 117.008V127.632C109.054 127.739 109.017 127.829 108.942 127.904C108.878 127.968 108.793 128 108.686 128H107.966C107.849 128 107.758 127.968 107.694 127.904C107.63 127.829 107.598 127.739 107.598 127.632V126.96C107.332 127.301 106.985 127.589 106.558 127.824C106.132 128.048 105.598 128.16 104.958 128.16ZM105.294 126.864C105.828 126.864 106.254 126.741 106.574 126.496C106.894 126.251 107.134 125.941 107.294 125.568C107.454 125.184 107.54 124.795 107.55 124.4C107.561 124.229 107.566 124.027 107.566 123.792C107.566 123.547 107.561 123.339 107.55 123.168C107.54 122.795 107.449 122.427 107.278 122.064C107.118 121.701 106.873 121.403 106.542 121.168C106.222 120.933 105.806 120.816 105.294 120.816C104.75 120.816 104.318 120.939 103.998 121.184C103.678 121.419 103.449 121.733 103.31 122.128C103.172 122.512 103.092 122.928 103.07 123.376C103.06 123.685 103.06 123.995 103.07 124.304C103.092 124.752 103.172 125.173 103.31 125.568C103.449 125.952 103.678 126.267 103.998 126.512C104.318 126.747 104.75 126.864 105.294 126.864ZM115.546 128.16C114.906 128.16 114.373 128.048 113.946 127.824C113.519 127.589 113.178 127.301 112.922 126.96V127.632C112.922 127.739 112.885 127.829 112.81 127.904C112.746 127.968 112.661 128 112.554 128H111.818C111.711 128 111.621 127.968 111.546 127.904C111.482 127.829 111.45 127.739 111.45 127.632V117.008C111.45 116.901 111.482 116.816 111.546 116.752C111.621 116.677 111.711 116.64 111.818 116.64H112.586C112.703 116.64 112.794 116.677 112.858 116.752C112.922 116.816 112.954 116.901 112.954 117.008V120.688C113.221 120.357 113.562 120.08 113.978 119.856C114.405 119.632 114.927 119.52 115.546 119.52C116.143 119.52 116.65 119.627 117.066 119.84C117.493 120.043 117.839 120.325 118.106 120.688C118.383 121.051 118.591 121.461 118.73 121.92C118.869 122.379 118.943 122.859 118.954 123.36C118.965 123.531 118.97 123.691 118.97 123.84C118.97 123.989 118.965 124.149 118.954 124.32C118.943 124.832 118.869 125.317 118.73 125.776C118.591 126.235 118.383 126.645 118.106 127.008C117.839 127.36 117.493 127.643 117.066 127.856C116.65 128.059 116.143 128.16 115.546 128.16ZM115.21 126.864C115.765 126.864 116.197 126.747 116.506 126.512C116.826 126.267 117.055 125.952 117.194 125.568C117.333 125.173 117.413 124.752 117.434 124.304C117.445 123.995 117.445 123.685 117.434 123.376C117.413 122.928 117.333 122.512 117.194 122.128C117.055 121.733 116.826 121.419 116.506 121.184C116.197 120.939 115.765 120.816 115.21 120.816C114.709 120.816 114.293 120.933 113.962 121.168C113.631 121.403 113.381 121.701 113.21 122.064C113.05 122.427 112.965 122.795 112.954 123.168C112.943 123.339 112.938 123.547 112.938 123.792C112.938 124.027 112.943 124.229 112.954 124.4C112.975 124.795 113.061 125.184 113.21 125.568C113.37 125.941 113.61 126.251 113.93 126.496C114.261 126.741 114.687 126.864 115.21 126.864ZM122.093 131.04C122.008 131.04 121.933 131.008 121.869 130.944C121.805 130.88 121.773 130.805 121.773 130.72C121.773 130.677 121.778 130.635 121.789 130.592C121.8 130.549 121.821 130.496 121.853 130.432L123.085 127.504L120.029 120.288C119.976 120.16 119.949 120.069 119.949 120.016C119.949 119.92 119.981 119.84 120.045 119.776C120.109 119.712 120.189 119.68 120.285 119.68H121.069C121.176 119.68 121.261 119.707 121.325 119.76C121.389 119.813 121.432 119.877 121.453 119.952L123.885 125.776L126.381 119.952C126.413 119.877 126.456 119.813 126.509 119.76C126.573 119.707 126.664 119.68 126.781 119.68H127.533C127.629 119.68 127.709 119.712 127.773 119.776C127.837 119.84 127.869 119.915 127.869 120C127.869 120.053 127.842 120.149 127.789 120.288L123.245 130.768C123.213 130.843 123.165 130.907 123.101 130.96C123.048 131.013 122.962 131.04 122.845 131.04H122.093ZM136.054 128.16C135.371 128.16 134.79 128.011 134.31 127.712C133.84 127.403 133.483 126.976 133.238 126.432C132.992 125.888 132.87 125.264 132.87 124.56V120.048C132.87 119.941 132.902 119.856 132.966 119.792C133.04 119.717 133.131 119.68 133.238 119.68H134.038C134.144 119.68 134.23 119.717 134.294 119.792C134.368 119.856 134.406 119.941 134.406 120.048V124.48C134.406 126.069 135.099 126.864 136.486 126.864C137.147 126.864 137.675 126.656 138.07 126.24C138.475 125.813 138.678 125.227 138.678 124.48V120.048C138.678 119.941 138.71 119.856 138.774 119.792C138.848 119.717 138.939 119.68 139.046 119.68H139.83C139.947 119.68 140.038 119.717 140.102 119.792C140.166 119.856 140.198 119.941 140.198 120.048V127.632C140.198 127.739 140.166 127.829 140.102 127.904C140.038 127.968 139.947 128 139.83 128H139.094C138.987 128 138.896 127.968 138.822 127.904C138.758 127.829 138.726 127.739 138.726 127.632V126.928C138.438 127.301 138.086 127.6 137.67 127.824C137.264 128.048 136.726 128.16 136.054 128.16ZM142.959 131.04C142.852 131.04 142.761 131.003 142.687 130.928C142.623 130.864 142.591 130.779 142.591 130.672V120.048C142.591 119.941 142.623 119.856 142.687 119.792C142.761 119.717 142.852 119.68 142.959 119.68H143.695C143.801 119.68 143.887 119.717 143.951 119.792C144.025 119.856 144.063 119.941 144.063 120.048V120.752C144.319 120.4 144.66 120.107 145.087 119.872C145.513 119.637 146.047 119.52 146.687 119.52C147.284 119.52 147.791 119.621 148.207 119.824C148.633 120.027 148.98 120.304 149.247 120.656C149.524 121.008 149.732 121.408 149.871 121.856C150.009 122.304 150.084 122.784 150.095 123.296C150.105 123.467 150.111 123.648 150.111 123.84C150.111 124.032 150.105 124.213 150.095 124.384C150.084 124.885 150.009 125.365 149.871 125.824C149.732 126.272 149.524 126.672 149.247 127.024C148.98 127.365 148.633 127.643 148.207 127.856C147.791 128.059 147.284 128.16 146.687 128.16C146.068 128.16 145.545 128.048 145.119 127.824C144.703 127.589 144.361 127.301 144.095 126.96V130.672C144.095 130.779 144.063 130.864 143.999 130.928C143.935 131.003 143.844 131.04 143.727 131.04H142.959ZM146.351 126.864C146.905 126.864 147.337 126.747 147.647 126.512C147.967 126.267 148.196 125.952 148.335 125.568C148.473 125.173 148.553 124.752 148.575 124.304C148.585 123.995 148.585 123.685 148.575 123.376C148.553 122.928 148.473 122.512 148.335 122.128C148.196 121.733 147.967 121.419 147.647 121.184C147.337 120.939 146.905 120.816 146.351 120.816C145.828 120.816 145.401 120.939 145.071 121.184C144.751 121.429 144.511 121.744 144.351 122.128C144.201 122.501 144.116 122.885 144.095 123.28C144.084 123.451 144.079 123.653 144.079 123.888C144.079 124.123 144.084 124.331 144.095 124.512C144.105 124.885 144.191 125.253 144.351 125.616C144.521 125.979 144.772 126.277 145.103 126.512C145.433 126.747 145.849 126.864 146.351 126.864ZM158.932 128C158.335 128 157.849 127.888 157.476 127.664C157.103 127.429 156.831 127.104 156.66 126.688C156.489 126.261 156.404 125.76 156.404 125.184V120.96H155.156C155.049 120.96 154.959 120.928 154.884 120.864C154.82 120.789 154.788 120.699 154.788 120.592V120.048C154.788 119.941 154.82 119.856 154.884 119.792C154.959 119.717 155.049 119.68 155.156 119.68H156.404V117.008C156.404 116.901 156.436 116.816 156.5 116.752C156.575 116.677 156.665 116.64 156.772 116.64H157.524C157.631 116.64 157.716 116.677 157.78 116.752C157.855 116.816 157.892 116.901 157.892 117.008V119.68H159.876C159.983 119.68 160.068 119.717 160.132 119.792C160.207 119.856 160.244 119.941 160.244 120.048V120.592C160.244 120.699 160.207 120.789 160.132 120.864C160.068 120.928 159.983 120.96 159.876 120.96H157.892V125.072C157.892 125.573 157.977 125.968 158.148 126.256C158.319 126.544 158.623 126.688 159.06 126.688H160.036C160.143 126.688 160.228 126.725 160.292 126.8C160.367 126.864 160.404 126.949 160.404 127.056V127.632C160.404 127.739 160.367 127.829 160.292 127.904C160.228 127.968 160.143 128 160.036 128H158.932ZM165.342 128.16C164.531 128.16 163.854 128.005 163.31 127.696C162.766 127.387 162.35 126.96 162.062 126.416C161.774 125.861 161.614 125.232 161.582 124.528C161.571 124.347 161.566 124.117 161.566 123.84C161.566 123.552 161.571 123.323 161.582 123.152C161.614 122.437 161.774 121.808 162.062 121.264C162.361 120.72 162.782 120.293 163.326 119.984C163.87 119.675 164.542 119.52 165.342 119.52C166.142 119.52 166.814 119.675 167.358 119.984C167.902 120.293 168.318 120.72 168.606 121.264C168.905 121.808 169.07 122.437 169.102 123.152C169.113 123.323 169.118 123.552 169.118 123.84C169.118 124.117 169.113 124.347 169.102 124.528C169.07 125.232 168.91 125.861 168.622 126.416C168.334 126.96 167.918 127.387 167.374 127.696C166.83 128.005 166.153 128.16 165.342 128.16ZM165.342 126.928C166.003 126.928 166.531 126.72 166.926 126.304C167.321 125.877 167.534 125.259 167.566 124.448C167.577 124.288 167.582 124.085 167.582 123.84C167.582 123.595 167.577 123.392 167.566 123.232C167.534 122.421 167.321 121.808 166.926 121.392C166.531 120.965 166.003 120.752 165.342 120.752C164.681 120.752 164.147 120.965 163.742 121.392C163.347 121.808 163.139 122.421 163.118 123.232C163.107 123.392 163.102 123.595 163.102 123.84C163.102 124.085 163.107 124.288 163.118 124.448C163.139 125.259 163.347 125.877 163.742 126.304C164.147 126.72 164.681 126.928 165.342 126.928ZM176.243 128C176.147 128 176.067 127.968 176.003 127.904C175.95 127.829 175.923 127.744 175.923 127.648C175.923 127.616 175.934 127.568 175.955 127.504L179.939 118.192H174.691C174.585 118.192 174.494 118.16 174.419 118.096C174.355 118.021 174.323 117.931 174.323 117.824V117.184C174.323 117.067 174.355 116.976 174.419 116.912C174.494 116.837 174.585 116.8 174.691 116.8H181.251C181.369 116.8 181.459 116.837 181.523 116.912C181.598 116.976 181.635 117.067 181.635 117.184V117.776C181.635 117.915 181.625 118.027 181.603 118.112C181.582 118.197 181.55 118.293 181.507 118.4L177.555 127.6C177.523 127.685 177.47 127.776 177.395 127.872C177.331 127.957 177.235 128 177.107 128H176.243ZM187.744 128C187.627 128 187.536 127.968 187.472 127.904C187.408 127.829 187.376 127.739 187.376 127.632V117.184C187.376 117.067 187.408 116.976 187.472 116.912C187.536 116.837 187.627 116.8 187.744 116.8H191.376C192.475 116.8 193.36 116.965 194.032 117.296C194.704 117.627 195.195 118.117 195.504 118.768C195.814 119.408 195.974 120.197 195.984 121.136C195.995 121.616 196 122.037 196 122.4C196 122.763 195.995 123.179 195.984 123.648C195.963 124.629 195.798 125.445 195.488 126.096C195.19 126.736 194.71 127.216 194.048 127.536C193.398 127.845 192.534 128 191.456 128H187.744ZM188.944 126.64H191.376C192.112 126.64 192.699 126.539 193.136 126.336C193.574 126.133 193.888 125.808 194.08 125.36C194.283 124.912 194.39 124.32 194.4 123.584C194.422 123.264 194.432 122.987 194.432 122.752C194.432 122.507 194.432 122.267 194.432 122.032C194.432 121.787 194.422 121.509 194.4 121.2C194.379 120.165 194.134 119.403 193.664 118.912C193.195 118.411 192.406 118.16 191.296 118.16H188.944V126.64ZM200.52 128.16C199.986 128.16 199.501 128.053 199.064 127.84C198.626 127.627 198.274 127.339 198.008 126.976C197.741 126.613 197.608 126.203 197.608 125.744C197.608 125.008 197.906 124.421 198.504 123.984C199.101 123.547 199.88 123.259 200.84 123.12L203.224 122.784V122.32C203.224 121.808 203.074 121.408 202.776 121.12C202.488 120.832 202.013 120.688 201.352 120.688C200.872 120.688 200.482 120.784 200.184 120.976C199.896 121.168 199.693 121.413 199.576 121.712C199.512 121.872 199.4 121.952 199.24 121.952H198.52C198.402 121.952 198.312 121.92 198.248 121.856C198.194 121.781 198.168 121.696 198.168 121.6C198.168 121.44 198.226 121.243 198.344 121.008C198.472 120.773 198.664 120.544 198.92 120.32C199.176 120.096 199.501 119.909 199.896 119.76C200.301 119.6 200.792 119.52 201.368 119.52C202.008 119.52 202.546 119.605 202.984 119.776C203.421 119.936 203.762 120.155 204.008 120.432C204.264 120.709 204.445 121.024 204.552 121.376C204.669 121.728 204.728 122.085 204.728 122.448V127.632C204.728 127.739 204.69 127.829 204.616 127.904C204.552 127.968 204.466 128 204.36 128H203.624C203.506 128 203.416 127.968 203.352 127.904C203.288 127.829 203.256 127.739 203.256 127.632V126.944C203.117 127.136 202.93 127.328 202.696 127.52C202.461 127.701 202.168 127.856 201.816 127.984C201.464 128.101 201.032 128.16 200.52 128.16ZM200.856 126.96C201.293 126.96 201.693 126.869 202.056 126.688C202.418 126.496 202.701 126.203 202.904 125.808C203.117 125.413 203.224 124.917 203.224 124.32V123.872L201.368 124.144C200.61 124.251 200.04 124.432 199.656 124.688C199.272 124.933 199.08 125.248 199.08 125.632C199.08 125.931 199.165 126.181 199.336 126.384C199.517 126.576 199.741 126.72 200.008 126.816C200.285 126.912 200.568 126.96 200.856 126.96ZM208.312 131.04C208.227 131.04 208.152 131.008 208.088 130.944C208.024 130.88 207.992 130.805 207.992 130.72C207.992 130.677 207.997 130.635 208.008 130.592C208.019 130.549 208.04 130.496 208.072 130.432L209.304 127.504L206.248 120.288C206.195 120.16 206.168 120.069 206.168 120.016C206.168 119.92 206.2 119.84 206.264 119.776C206.328 119.712 206.408 119.68 206.504 119.68H207.288C207.395 119.68 207.48 119.707 207.544 119.76C207.608 119.813 207.651 119.877 207.672 119.952L210.104 125.776L212.6 119.952C212.632 119.877 212.675 119.813 212.728 119.76C212.792 119.707 212.883 119.68 213 119.68H213.752C213.848 119.68 213.928 119.712 213.992 119.776C214.056 119.84 214.088 119.915 214.088 120C214.088 120.053 214.061 120.149 214.008 120.288L209.464 130.768C209.432 130.843 209.384 130.907 209.32 130.96C209.267 131.013 209.181 131.04 209.064 131.04H208.312ZM218.298 128.16C217.701 128.16 217.189 128.085 216.762 127.936C216.336 127.787 215.989 127.605 215.722 127.392C215.456 127.179 215.253 126.965 215.114 126.752C214.986 126.539 214.917 126.368 214.906 126.24C214.896 126.123 214.933 126.032 215.018 125.968C215.104 125.904 215.189 125.872 215.274 125.872H215.978C216.042 125.872 216.09 125.883 216.122 125.904C216.165 125.915 216.218 125.957 216.282 126.032C216.421 126.181 216.576 126.331 216.746 126.48C216.917 126.629 217.125 126.752 217.37 126.848C217.626 126.944 217.941 126.992 218.314 126.992C218.858 126.992 219.306 126.891 219.658 126.688C220.01 126.475 220.186 126.165 220.186 125.76C220.186 125.493 220.112 125.28 219.962 125.12C219.824 124.96 219.568 124.816 219.194 124.688C218.832 124.56 218.33 124.427 217.69 124.288C217.05 124.139 216.544 123.957 216.17 123.744C215.797 123.52 215.53 123.259 215.37 122.96C215.21 122.651 215.13 122.304 215.13 121.92C215.13 121.525 215.248 121.147 215.482 120.784C215.717 120.411 216.058 120.107 216.506 119.872C216.965 119.637 217.536 119.52 218.218 119.52C218.773 119.52 219.248 119.589 219.642 119.728C220.037 119.867 220.362 120.043 220.618 120.256C220.874 120.459 221.066 120.661 221.194 120.864C221.322 121.067 221.392 121.237 221.402 121.376C221.413 121.483 221.381 121.573 221.306 121.648C221.232 121.712 221.146 121.744 221.05 121.744H220.378C220.304 121.744 220.24 121.728 220.186 121.696C220.144 121.664 220.101 121.627 220.058 121.584C219.952 121.445 219.824 121.307 219.674 121.168C219.536 121.029 219.349 120.917 219.114 120.832C218.89 120.736 218.592 120.688 218.218 120.688C217.685 120.688 217.285 120.8 217.018 121.024C216.752 121.248 216.618 121.531 216.618 121.872C216.618 122.075 216.677 122.256 216.794 122.416C216.912 122.576 217.136 122.72 217.466 122.848C217.797 122.976 218.288 123.115 218.938 123.264C219.642 123.403 220.197 123.589 220.602 123.824C221.008 124.059 221.296 124.331 221.466 124.64C221.637 124.949 221.722 125.307 221.722 125.712C221.722 126.16 221.589 126.571 221.322 126.944C221.066 127.317 220.682 127.616 220.17 127.84C219.669 128.053 219.045 128.16 218.298 128.16Z" fill="white"/>
<g filter="url(#filter1_d_529_276)">
<path d="M309.809 127.555H294.01C293.591 127.555 293.189 127.389 292.893 127.092C292.596 126.796 292.43 126.394 292.43 125.975C292.43 125.556 292.596 125.154 292.893 124.858C293.189 124.562 293.591 124.395 294.01 124.395H309.809C312.422 124.395 314.549 122.269 314.549 119.655V116.496C314.549 116.077 314.715 115.675 315.012 115.378C315.308 115.082 315.71 114.916 316.129 114.916H319.26C319.679 114.916 320.081 114.749 320.378 114.453C320.674 114.157 320.84 113.755 320.84 113.336V94.3766C320.84 93.9576 320.674 93.5557 320.378 93.2594C320.081 92.9631 319.679 92.7967 319.26 92.7967H316.129C315.71 92.7967 315.308 92.6302 315.012 92.3339C314.715 92.0376 314.549 91.6358 314.549 91.2167V88.0569C314.549 85.4437 312.422 83.3171 309.809 83.3171H300.33C299.911 83.3171 299.509 83.1506 299.212 82.8543C298.916 82.558 298.75 82.1562 298.75 81.7372C298.75 81.3181 298.916 80.9163 299.212 80.62C299.509 80.3237 299.911 80.1572 300.33 80.1572H309.809C314.163 80.1572 317.709 83.7026 317.709 88.0569V89.6368H319.26C321.874 89.6368 324 91.7634 324 94.3766V113.336C324 115.949 321.874 118.076 319.26 118.076H317.709V119.655C317.709 124.01 314.163 127.555 309.809 127.555ZM268.731 127.555H256.092C253.997 127.553 251.989 126.72 250.508 125.239C249.027 123.758 248.194 121.75 248.192 119.655V88.0569C248.192 83.7026 251.737 80.1572 256.092 80.1572H278.211C278.63 80.1572 279.031 80.3237 279.328 80.62C279.624 80.9163 279.791 81.3181 279.791 81.7372C279.791 82.1562 279.624 82.558 279.328 82.8543C279.031 83.1506 278.63 83.3171 278.211 83.3171H256.092C253.478 83.3171 251.352 85.4437 251.352 88.0569V119.655C251.352 122.269 253.478 124.395 256.092 124.395H268.731C269.15 124.395 269.552 124.562 269.848 124.858C270.144 125.154 270.311 125.556 270.311 125.975C270.311 126.394 270.144 126.796 269.848 127.092C269.552 127.389 269.15 127.555 268.731 127.555Z" fill="#97FE00"/>
<path d="M277.588 133.875C277.338 133.875 277.092 133.815 276.87 133.701C276.647 133.587 276.455 133.422 276.309 133.219C276.163 133.017 276.067 132.782 276.029 132.535C275.991 132.289 276.012 132.036 276.09 131.799L282.707 111.756H270.311C270.022 111.756 269.739 111.677 269.492 111.528C269.246 111.378 269.044 111.164 268.91 110.909C268.777 110.653 268.715 110.366 268.733 110.078C268.751 109.79 268.848 109.512 269.012 109.275L290.897 77.6768C291.108 77.3784 291.414 77.1612 291.766 77.0611C292.117 76.9611 292.492 76.9843 292.828 77.127C293.52 77.4303 293.902 78.1792 293.741 78.9155L289.292 99.1165H301.909C302.204 99.1178 302.492 99.2012 302.742 99.3574C302.992 99.5137 303.193 99.7364 303.323 100.001C303.453 100.265 303.507 100.56 303.478 100.854C303.449 101.147 303.339 101.426 303.161 101.66L278.839 133.259C278.692 133.451 278.503 133.607 278.286 133.713C278.069 133.82 277.83 133.876 277.588 133.875ZM273.328 108.596H284.893C285.144 108.596 285.39 108.655 285.613 108.769C285.836 108.882 286.028 109.047 286.174 109.25C286.321 109.453 286.417 109.688 286.454 109.935C286.492 110.182 286.47 110.435 286.391 110.672L281.999 123.972L298.699 102.276H287.327C287.09 102.276 286.857 102.222 286.644 102.12C286.431 102.017 286.244 101.868 286.096 101.684C285.948 101.5 285.843 101.285 285.788 101.055C285.734 100.825 285.732 100.586 285.781 100.355L288.929 86.0694L273.328 108.596Z" fill="#97FE00"/>
</g>
<defs>
<filter id="filter0_d_529_276" x="-29" y="0" width="448" height="250" filterUnits="userSpaceOnUse" color-interpolation-filters="sRGB">
<feFlood flood-opacity="0" result="BackgroundImageFix"/>
<feColorMatrix in="SourceAlpha" type="matrix" values="0 0 0 0 0 0 0 0 0 0 0 0 0 0 0 0 0 0 127 0" result="hardAlpha"/>
<feOffset dy="20"/>
<feGaussianBlur stdDeviation="30"/>
<feComposite in2="hardAlpha" operator="out"/>
<feColorMatrix type="matrix" values="0 0 0 0 0 0 0 0 0 0 0 0 0 0 0 0 0 0 0.25 0"/>
<feBlend mode="normal" in2="BackgroundImageFix" result="effect1_dropShadow_529_276"/>
<feBlend mode="normal" in="SourceGraphic" in2="effect1_dropShadow_529_276" result="shape"/>
</filter>
<filter id="filter1_d_529_276" x="208.192" y="47" width="155.808" height="136.875" filterUnits="userSpaceOnUse" color-interpolation-filters="sRGB">
<feFlood flood-opacity="0" result="BackgroundImageFix"/>
<feColorMatrix in="SourceAlpha" type="matrix" values="0 0 0 0 0 0 0 0 0 0 0 0 0 0 0 0 0 0 127 0" result="hardAlpha"/>
<feOffset dy="10"/>
<feGaussianBlur stdDeviation="20"/>
<feComposite in2="hardAlpha" operator="out"/>
<feColorMatrix type="matrix" values="0 0 0 0 0.592157 0 0 0 0 0.996078 0 0 0 0 0 0 0 0 1 0"/>
<feBlend mode="normal" in2="BackgroundImageFix" result="effect1_dropShadow_529_276"/>
<feBlend mode="normal" in="SourceGraphic" in2="effect1_dropShadow_529_276" result="shape"/>
</filter>
</defs>
</svg>
