<svg width="390" height="303" viewBox="0 0 390 303" fill="none" xmlns="http://www.w3.org/2000/svg">
<g filter="url(#filter0_d_529_284)">
<rect x="31" y="40" width="328" height="183" rx="22" fill="#19020E"/>
</g>
<path d="M123.616 109.18C122.572 109.18 121.696 109.024 120.988 108.712C120.28 108.388 119.734 107.974 119.35 107.47C118.978 106.954 118.78 106.408 118.756 105.832C118.756 105.736 118.792 105.652 118.864 105.58C118.948 105.496 119.044 105.454 119.152 105.454H120.07C120.214 105.454 120.322 105.49 120.394 105.562C120.466 105.634 120.514 105.718 120.538 105.814C120.598 106.102 120.742 106.39 120.97 106.678C121.21 106.954 121.54 107.188 121.96 107.38C122.392 107.56 122.944 107.65 123.616 107.65C124.648 107.65 125.404 107.47 125.884 107.11C126.376 106.738 126.622 106.246 126.622 105.634C126.622 105.214 126.49 104.878 126.226 104.626C125.974 104.362 125.584 104.128 125.056 103.924C124.528 103.72 123.844 103.498 123.004 103.258C122.128 103.006 121.402 102.73 120.826 102.43C120.25 102.13 119.818 101.758 119.53 101.314C119.254 100.87 119.116 100.306 119.116 99.622C119.116 98.974 119.29 98.398 119.638 97.894C119.986 97.378 120.484 96.97 121.132 96.67C121.792 96.37 122.59 96.22 123.526 96.22C124.27 96.22 124.918 96.322 125.47 96.526C126.034 96.718 126.502 96.982 126.874 97.318C127.246 97.642 127.528 97.996 127.72 98.38C127.912 98.752 128.014 99.118 128.026 99.478C128.026 99.562 127.996 99.646 127.936 99.73C127.876 99.802 127.78 99.838 127.648 99.838H126.694C126.61 99.838 126.52 99.814 126.424 99.766C126.34 99.718 126.274 99.628 126.226 99.496C126.154 99.004 125.878 98.59 125.398 98.254C124.918 97.918 124.294 97.75 123.526 97.75C122.746 97.75 122.11 97.9 121.618 98.2C121.138 98.5 120.898 98.968 120.898 99.604C120.898 100.012 121.012 100.354 121.24 100.63C121.468 100.894 121.828 101.128 122.32 101.332C122.812 101.536 123.454 101.752 124.246 101.98C125.206 102.244 125.992 102.526 126.604 102.826C127.216 103.114 127.666 103.48 127.954 103.924C128.254 104.356 128.404 104.914 128.404 105.598C128.404 106.354 128.206 107.002 127.81 107.542C127.414 108.07 126.856 108.478 126.136 108.766C125.428 109.042 124.588 109.18 123.616 109.18ZM130.961 109C130.841 109 130.739 108.964 130.655 108.892C130.583 108.808 130.547 108.706 130.547 108.586V96.634C130.547 96.514 130.583 96.418 130.655 96.346C130.739 96.262 130.841 96.22 130.961 96.22H131.807C131.939 96.22 132.041 96.262 132.113 96.346C132.185 96.418 132.221 96.514 132.221 96.634V108.586C132.221 108.706 132.185 108.808 132.113 108.892C132.041 108.964 131.939 109 131.807 109H130.961ZM138.632 109.18C137.396 109.18 136.412 108.802 135.68 108.046C134.948 107.278 134.546 106.234 134.474 104.914C134.462 104.758 134.456 104.56 134.456 104.32C134.456 104.068 134.462 103.864 134.474 103.708C134.522 102.856 134.72 102.112 135.068 101.476C135.416 100.828 135.89 100.33 136.49 99.982C137.102 99.634 137.816 99.46 138.632 99.46C139.544 99.46 140.306 99.652 140.918 100.036C141.542 100.42 142.016 100.966 142.34 101.674C142.664 102.382 142.826 103.21 142.826 104.158V104.464C142.826 104.596 142.784 104.698 142.7 104.77C142.628 104.842 142.532 104.878 142.412 104.878H136.184C136.184 104.89 136.184 104.914 136.184 104.95C136.184 104.986 136.184 105.016 136.184 105.04C136.208 105.532 136.316 105.994 136.508 106.426C136.7 106.846 136.976 107.188 137.336 107.452C137.696 107.716 138.128 107.848 138.632 107.848C139.064 107.848 139.424 107.782 139.712 107.65C140 107.518 140.234 107.374 140.414 107.218C140.594 107.05 140.714 106.924 140.774 106.84C140.882 106.684 140.966 106.594 141.026 106.57C141.086 106.534 141.182 106.516 141.314 106.516H142.178C142.298 106.516 142.394 106.552 142.466 106.624C142.55 106.684 142.586 106.774 142.574 106.894C142.562 107.074 142.466 107.296 142.286 107.56C142.106 107.812 141.848 108.064 141.512 108.316C141.176 108.568 140.768 108.778 140.288 108.946C139.808 109.102 139.256 109.18 138.632 109.18ZM136.184 103.636H141.116V103.582C141.116 103.042 141.014 102.562 140.81 102.142C140.618 101.722 140.336 101.392 139.964 101.152C139.592 100.9 139.148 100.774 138.632 100.774C138.116 100.774 137.672 100.9 137.3 101.152C136.94 101.392 136.664 101.722 136.472 102.142C136.28 102.562 136.184 103.042 136.184 103.582V103.636ZM148.704 109.18C147.468 109.18 146.484 108.802 145.752 108.046C145.02 107.278 144.618 106.234 144.546 104.914C144.534 104.758 144.528 104.56 144.528 104.32C144.528 104.068 144.534 103.864 144.546 103.708C144.594 102.856 144.792 102.112 145.14 101.476C145.488 100.828 145.962 100.33 146.562 99.982C147.174 99.634 147.888 99.46 148.704 99.46C149.616 99.46 150.378 99.652 150.99 100.036C151.614 100.42 152.088 100.966 152.412 101.674C152.736 102.382 152.898 103.21 152.898 104.158V104.464C152.898 104.596 152.856 104.698 152.772 104.77C152.7 104.842 152.604 104.878 152.484 104.878H146.256C146.256 104.89 146.256 104.914 146.256 104.95C146.256 104.986 146.256 105.016 146.256 105.04C146.28 105.532 146.388 105.994 146.58 106.426C146.772 106.846 147.048 107.188 147.408 107.452C147.768 107.716 148.2 107.848 148.704 107.848C149.136 107.848 149.496 107.782 149.784 107.65C150.072 107.518 150.306 107.374 150.486 107.218C150.666 107.05 150.786 106.924 150.846 106.84C150.954 106.684 151.038 106.594 151.098 106.57C151.158 106.534 151.254 106.516 151.386 106.516H152.25C152.37 106.516 152.466 106.552 152.538 106.624C152.622 106.684 152.658 106.774 152.646 106.894C152.634 107.074 152.538 107.296 152.358 107.56C152.178 107.812 151.92 108.064 151.584 108.316C151.248 108.568 150.84 108.778 150.36 108.946C149.88 109.102 149.328 109.18 148.704 109.18ZM146.256 103.636H151.188V103.582C151.188 103.042 151.086 102.562 150.882 102.142C150.69 101.722 150.408 101.392 150.036 101.152C149.664 100.9 149.22 100.774 148.704 100.774C148.188 100.774 147.744 100.9 147.372 101.152C147.012 101.392 146.736 101.722 146.544 102.142C146.352 102.562 146.256 103.042 146.256 103.582V103.636ZM155.483 112.42C155.363 112.42 155.261 112.378 155.177 112.294C155.105 112.222 155.069 112.126 155.069 112.006V100.054C155.069 99.934 155.105 99.838 155.177 99.766C155.261 99.682 155.363 99.64 155.483 99.64H156.311C156.431 99.64 156.527 99.682 156.599 99.766C156.683 99.838 156.725 99.934 156.725 100.054V100.846C157.013 100.45 157.397 100.12 157.877 99.856C158.357 99.592 158.957 99.46 159.677 99.46C160.349 99.46 160.919 99.574 161.387 99.802C161.867 100.03 162.257 100.342 162.557 100.738C162.869 101.134 163.103 101.584 163.259 102.088C163.415 102.592 163.499 103.132 163.511 103.708C163.523 103.9 163.529 104.104 163.529 104.32C163.529 104.536 163.523 104.74 163.511 104.932C163.499 105.496 163.415 106.036 163.259 106.552C163.103 107.056 162.869 107.506 162.557 107.902C162.257 108.286 161.867 108.598 161.387 108.838C160.919 109.066 160.349 109.18 159.677 109.18C158.981 109.18 158.393 109.054 157.913 108.802C157.445 108.538 157.061 108.214 156.761 107.83V112.006C156.761 112.126 156.725 112.222 156.653 112.294C156.581 112.378 156.479 112.42 156.347 112.42H155.483ZM159.299 107.722C159.923 107.722 160.409 107.59 160.757 107.326C161.117 107.05 161.375 106.696 161.531 106.264C161.687 105.82 161.777 105.346 161.801 104.842C161.813 104.494 161.813 104.146 161.801 103.798C161.777 103.294 161.687 102.826 161.531 102.394C161.375 101.95 161.117 101.596 160.757 101.332C160.409 101.056 159.923 100.918 159.299 100.918C158.711 100.918 158.231 101.056 157.859 101.332C157.499 101.608 157.229 101.962 157.049 102.394C156.881 102.814 156.785 103.246 156.761 103.69C156.749 103.882 156.743 104.11 156.743 104.374C156.743 104.638 156.749 104.872 156.761 105.076C156.773 105.496 156.869 105.91 157.049 106.318C157.241 106.726 157.523 107.062 157.895 107.326C158.267 107.59 158.735 107.722 159.299 107.722ZM170.834 109C170.714 109 170.612 108.964 170.528 108.892C170.456 108.808 170.42 108.706 170.42 108.586V96.832C170.42 96.7 170.456 96.598 170.528 96.526C170.612 96.442 170.714 96.4 170.834 96.4H171.734C171.878 96.4 171.986 96.436 172.058 96.508C172.13 96.58 172.172 96.64 172.184 96.688L176 103.96L179.834 96.688C179.858 96.64 179.9 96.58 179.96 96.508C180.032 96.436 180.14 96.4 180.284 96.4H181.166C181.298 96.4 181.4 96.442 181.472 96.526C181.556 96.598 181.598 96.7 181.598 96.832V108.586C181.598 108.706 181.556 108.808 181.472 108.892C181.4 108.964 181.298 109 181.166 109H180.284C180.164 109 180.062 108.964 179.978 108.892C179.906 108.808 179.87 108.706 179.87 108.586V99.73L176.864 105.598C176.816 105.718 176.744 105.814 176.648 105.886C176.552 105.946 176.432 105.976 176.288 105.976H175.73C175.574 105.976 175.448 105.946 175.352 105.886C175.268 105.814 175.196 105.718 175.136 105.598L172.13 99.73V108.586C172.13 108.706 172.088 108.808 172.004 108.892C171.932 108.964 171.836 109 171.716 109H170.834ZM188.311 109.18C187.399 109.18 186.637 109.006 186.025 108.658C185.413 108.31 184.945 107.83 184.621 107.218C184.297 106.594 184.117 105.886 184.081 105.094C184.069 104.89 184.063 104.632 184.063 104.32C184.063 103.996 184.069 103.738 184.081 103.546C184.117 102.742 184.297 102.034 184.621 101.422C184.957 100.81 185.431 100.33 186.043 99.982C186.655 99.634 187.411 99.46 188.311 99.46C189.211 99.46 189.967 99.634 190.579 99.982C191.191 100.33 191.659 100.81 191.983 101.422C192.319 102.034 192.505 102.742 192.541 103.546C192.553 103.738 192.559 103.996 192.559 104.32C192.559 104.632 192.553 104.89 192.541 105.094C192.505 105.886 192.325 106.594 192.001 107.218C191.677 107.83 191.209 108.31 190.597 108.658C189.985 109.006 189.223 109.18 188.311 109.18ZM188.311 107.794C189.055 107.794 189.649 107.56 190.093 107.092C190.537 106.612 190.777 105.916 190.813 105.004C190.825 104.824 190.831 104.596 190.831 104.32C190.831 104.044 190.825 103.816 190.813 103.636C190.777 102.724 190.537 102.034 190.093 101.566C189.649 101.086 189.055 100.846 188.311 100.846C187.567 100.846 186.967 101.086 186.511 101.566C186.067 102.034 185.833 102.724 185.809 103.636C185.797 103.816 185.791 104.044 185.791 104.32C185.791 104.596 185.797 104.824 185.809 105.004C185.833 105.916 186.067 106.612 186.511 107.092C186.967 107.56 187.567 107.794 188.311 107.794ZM195.226 109C195.106 109 195.004 108.964 194.92 108.892C194.848 108.808 194.812 108.706 194.812 108.586V100.054C194.812 99.934 194.848 99.838 194.92 99.766C195.004 99.682 195.106 99.64 195.226 99.64H196.072C196.192 99.64 196.288 99.682 196.36 99.766C196.444 99.838 196.486 99.934 196.486 100.054V100.846C196.798 100.438 197.188 100.108 197.656 99.856C198.136 99.592 198.748 99.46 199.492 99.46C200.272 99.46 200.932 99.634 201.472 99.982C202.024 100.318 202.438 100.792 202.714 101.404C202.99 102.004 203.128 102.706 203.128 103.51V108.586C203.128 108.706 203.092 108.808 203.02 108.892C202.948 108.964 202.852 109 202.732 109H201.832C201.712 109 201.61 108.964 201.526 108.892C201.454 108.808 201.418 108.706 201.418 108.586V103.6C201.418 102.76 201.214 102.106 200.806 101.638C200.398 101.158 199.798 100.918 199.006 100.918C198.262 100.918 197.662 101.158 197.206 101.638C196.762 102.106 196.54 102.76 196.54 103.6V108.586C196.54 108.706 196.498 108.808 196.414 108.892C196.342 108.964 196.246 109 196.126 109H195.226ZM206.142 109C206.022 109 205.92 108.964 205.836 108.892C205.764 108.808 205.728 108.706 205.728 108.586V100.054C205.728 99.934 205.764 99.838 205.836 99.766C205.92 99.682 206.022 99.64 206.142 99.64H207.006C207.126 99.64 207.222 99.682 207.294 99.766C207.366 99.838 207.402 99.934 207.402 100.054V108.586C207.402 108.706 207.366 108.808 207.294 108.892C207.222 108.964 207.126 109 207.006 109H206.142ZM205.998 97.894C205.878 97.894 205.776 97.858 205.692 97.786C205.62 97.702 205.584 97.6 205.584 97.48V96.508C205.584 96.388 205.62 96.292 205.692 96.22C205.776 96.136 205.878 96.094 205.998 96.094H207.132C207.252 96.094 207.348 96.136 207.42 96.22C207.504 96.292 207.546 96.388 207.546 96.508V97.48C207.546 97.6 207.504 97.702 207.42 97.786C207.348 97.858 207.252 97.894 207.132 97.894H205.998ZM213.742 109C213.07 109 212.524 108.874 212.104 108.622C211.684 108.358 211.378 107.992 211.186 107.524C210.994 107.044 210.898 106.48 210.898 105.832V101.08H209.494C209.374 101.08 209.272 101.044 209.188 100.972C209.116 100.888 209.08 100.786 209.08 100.666V100.054C209.08 99.934 209.116 99.838 209.188 99.766C209.272 99.682 209.374 99.64 209.494 99.64H210.898V96.634C210.898 96.514 210.934 96.418 211.006 96.346C211.09 96.262 211.192 96.22 211.312 96.22H212.158C212.278 96.22 212.374 96.262 212.446 96.346C212.53 96.418 212.572 96.514 212.572 96.634V99.64H214.804C214.924 99.64 215.02 99.682 215.092 99.766C215.176 99.838 215.218 99.934 215.218 100.054V100.666C215.218 100.786 215.176 100.888 215.092 100.972C215.02 101.044 214.924 101.08 214.804 101.08H212.572V105.706C212.572 106.27 212.668 106.714 212.86 107.038C213.052 107.362 213.394 107.524 213.886 107.524H214.984C215.104 107.524 215.2 107.566 215.272 107.65C215.356 107.722 215.398 107.818 215.398 107.938V108.586C215.398 108.706 215.356 108.808 215.272 108.892C215.2 108.964 215.104 109 214.984 109H213.742ZM220.953 109.18C220.041 109.18 219.279 109.006 218.667 108.658C218.055 108.31 217.587 107.83 217.263 107.218C216.939 106.594 216.759 105.886 216.723 105.094C216.711 104.89 216.705 104.632 216.705 104.32C216.705 103.996 216.711 103.738 216.723 103.546C216.759 102.742 216.939 102.034 217.263 101.422C217.599 100.81 218.073 100.33 218.685 99.982C219.297 99.634 220.053 99.46 220.953 99.46C221.853 99.46 222.609 99.634 223.221 99.982C223.833 100.33 224.301 100.81 224.625 101.422C224.961 102.034 225.147 102.742 225.183 103.546C225.195 103.738 225.201 103.996 225.201 104.32C225.201 104.632 225.195 104.89 225.183 105.094C225.147 105.886 224.967 106.594 224.643 107.218C224.319 107.83 223.851 108.31 223.239 108.658C222.627 109.006 221.865 109.18 220.953 109.18ZM220.953 107.794C221.697 107.794 222.291 107.56 222.735 107.092C223.179 106.612 223.419 105.916 223.455 105.004C223.467 104.824 223.473 104.596 223.473 104.32C223.473 104.044 223.467 103.816 223.455 103.636C223.419 102.724 223.179 102.034 222.735 101.566C222.291 101.086 221.697 100.846 220.953 100.846C220.209 100.846 219.609 101.086 219.153 101.566C218.709 102.034 218.475 102.724 218.451 103.636C218.439 103.816 218.433 104.044 218.433 104.32C218.433 104.596 218.439 104.824 218.451 105.004C218.475 105.916 218.709 106.612 219.153 107.092C219.609 107.56 220.209 107.794 220.953 107.794ZM227.869 109C227.749 109 227.647 108.964 227.563 108.892C227.491 108.808 227.455 108.706 227.455 108.586V100.072C227.455 99.952 227.491 99.85 227.563 99.766C227.647 99.682 227.749 99.64 227.869 99.64H228.697C228.817 99.64 228.919 99.682 229.003 99.766C229.087 99.85 229.129 99.952 229.129 100.072V100.864C229.369 100.456 229.699 100.15 230.119 99.946C230.539 99.742 231.043 99.64 231.631 99.64H232.351C232.471 99.64 232.567 99.682 232.639 99.766C232.711 99.838 232.747 99.934 232.747 100.054V100.792C232.747 100.912 232.711 101.008 232.639 101.08C232.567 101.152 232.471 101.188 232.351 101.188H231.271C230.623 101.188 230.113 101.38 229.741 101.764C229.369 102.136 229.183 102.646 229.183 103.294V108.586C229.183 108.706 229.141 108.808 229.057 108.892C228.973 108.964 228.871 109 228.751 109H227.869Z" fill="white"/>
<path d="M79.125 106.812C79.3073 106.812 79.4822 106.74 79.6111 106.611C79.7401 106.482 79.8125 106.307 79.8125 106.125V105.438H92.1875V106.125C92.1875 106.307 92.2599 106.482 92.3889 106.611C92.5178 106.74 92.6927 106.812 92.875 106.812C93.0573 106.812 93.2322 106.74 93.3611 106.611C93.4901 106.482 93.5625 106.307 93.5625 106.125V102C93.5625 101.271 93.2728 100.571 92.757 100.055C92.2413 99.5397 91.5418 99.25 90.8125 99.25H84.0887C83.7641 98.9207 83.3381 98.7101 82.8793 98.652C82.4205 98.5938 81.9555 98.6916 81.559 98.9295C81.1624 99.1675 80.8573 99.5318 80.6927 99.9639C80.5281 100.396 80.5135 100.871 80.6512 101.312H79.8125V97.875C79.8125 97.6927 79.7401 97.5178 79.6111 97.3889C79.4822 97.2599 79.3073 97.1875 79.125 97.1875C78.9427 97.1875 78.7678 97.2599 78.6389 97.3889C78.5099 97.5178 78.4375 97.6927 78.4375 97.875V106.125C78.4375 106.307 78.5099 106.482 78.6389 106.611C78.7678 106.74 78.9427 106.812 79.125 106.812ZM90.8125 100.625C91.1772 100.625 91.5269 100.77 91.7848 101.028C92.0426 101.286 92.1875 101.635 92.1875 102V104.062H84.625V100.625H90.8125ZM81.875 100.625C81.875 100.489 81.9153 100.356 81.9909 100.243C82.0664 100.13 82.1738 100.042 82.2994 99.9898C82.425 99.9378 82.5633 99.9242 82.6966 99.9507C82.83 99.9772 82.9525 100.043 83.0486 100.139C83.1448 100.235 83.2103 100.358 83.2368 100.491C83.2633 100.624 83.2497 100.762 83.1977 100.888C83.1456 101.014 83.0575 101.121 82.9445 101.197C82.8314 101.272 82.6985 101.312 82.5625 101.312C82.3802 101.312 82.2053 101.24 82.0764 101.111C81.9474 100.982 81.875 100.807 81.875 100.625ZM83.25 102.688V104.062H79.8125V102.688H83.25Z" fill="white"/>
<path d="M95.625 91H76.375C76.1927 91 76.0178 91.0724 75.8889 91.2014C75.7599 91.3303 75.6875 91.5052 75.6875 91.6875V112.312C75.6875 112.495 75.7599 112.67 75.8889 112.799C76.0178 112.928 76.1927 113 76.375 113H95.625C95.8073 113 95.9822 112.928 96.1111 112.799C96.2401 112.67 96.3125 112.495 96.3125 112.312V91.6875C96.3125 91.5052 96.2401 91.3303 96.1111 91.2014C95.9822 91.0724 95.8073 91 95.625 91ZM94.9375 111.625H77.0625V92.375H94.9375V111.625Z" fill="white"/>
<path d="M95.625 88.25H94.7862L93.5625 83.2725C93.5249 83.12 93.4361 82.985 93.311 82.8899C93.1859 82.7948 93.032 82.7455 92.875 82.75H79.125C78.968 82.7455 78.8141 82.7948 78.689 82.8899C78.5639 82.985 78.4751 83.12 78.4375 83.2725L77.2137 88.25H76.375C75.4633 88.25 74.589 88.6122 73.9443 89.2569C73.2997 89.9015 72.9375 90.7759 72.9375 91.6875V112.313C72.9375 113.224 73.2997 114.099 73.9443 114.743C74.589 115.388 75.4633 115.75 76.375 115.75H77.2137L78.4375 120.728C78.4751 120.88 78.5639 121.015 78.689 121.11C78.8141 121.205 78.968 121.255 79.125 121.25H92.875C93.032 121.255 93.1859 121.205 93.311 121.11C93.4361 121.015 93.5249 120.88 93.5625 120.728L94.7862 115.75H95.625C96.5367 115.75 97.411 115.388 98.0557 114.743C98.7003 114.099 99.0625 113.224 99.0625 112.313V91.6875C99.0625 90.7759 98.7003 89.9015 98.0557 89.2569C97.411 88.6122 96.5367 88.25 95.625 88.25ZM79.6613 84.125H92.3388L93.37 88.25H78.63L79.6613 84.125ZM92.3388 119.875H79.6613L78.63 115.75H93.37L92.3388 119.875ZM97.6875 112.313C97.6875 112.86 97.4702 113.384 97.0834 113.771C96.6966 114.158 96.172 114.375 95.625 114.375H76.375C75.828 114.375 75.3034 114.158 74.9166 113.771C74.5298 113.384 74.3125 112.86 74.3125 112.313V91.6875C74.3125 91.1405 74.5298 90.6159 74.9166 90.2291C75.3034 89.8423 75.828 89.625 76.375 89.625H95.625C96.172 89.625 96.6966 89.8423 97.0834 90.2291C97.4702 90.6159 97.6875 91.1405 97.6875 91.6875V112.313Z" fill="white"/>
<path d="M150.102 168.18C148.998 168.18 148.08 167.976 147.348 167.568C146.628 167.16 146.082 166.59 145.71 165.858C145.338 165.126 145.134 164.274 145.098 163.302C145.086 162.81 145.08 162.282 145.08 161.718C145.08 161.154 145.086 160.614 145.098 160.098C145.134 159.126 145.338 158.274 145.71 157.542C146.082 156.81 146.628 156.24 147.348 155.832C148.08 155.424 148.998 155.22 150.102 155.22C150.93 155.22 151.656 155.334 152.28 155.562C152.904 155.79 153.42 156.096 153.828 156.48C154.248 156.864 154.566 157.296 154.782 157.776C154.998 158.244 155.118 158.73 155.142 159.234C155.154 159.342 155.118 159.432 155.034 159.504C154.962 159.576 154.872 159.612 154.764 159.612H153.774C153.666 159.612 153.57 159.582 153.486 159.522C153.414 159.462 153.36 159.354 153.324 159.198C153.12 158.262 152.736 157.62 152.172 157.272C151.62 156.924 150.924 156.75 150.084 156.75C149.124 156.75 148.362 157.026 147.798 157.578C147.234 158.118 146.928 158.988 146.88 160.188C146.844 161.172 146.844 162.18 146.88 163.212C146.928 164.412 147.234 165.288 147.798 165.84C148.362 166.38 149.124 166.65 150.084 166.65C150.924 166.65 151.62 166.476 152.172 166.128C152.736 165.78 153.12 165.138 153.324 164.202C153.36 164.046 153.414 163.938 153.486 163.878C153.57 163.818 153.666 163.788 153.774 163.788H154.764C154.872 163.788 154.962 163.824 155.034 163.896C155.118 163.968 155.154 164.058 155.142 164.166C155.118 164.67 154.998 165.162 154.782 165.642C154.566 166.11 154.248 166.536 153.828 166.92C153.42 167.304 152.904 167.61 152.28 167.838C151.656 168.066 150.93 168.18 150.102 168.18ZM159.93 168.18C159.33 168.18 158.784 168.06 158.292 167.82C157.8 167.58 157.404 167.256 157.104 166.848C156.804 166.44 156.654 165.978 156.654 165.462C156.654 164.634 156.99 163.974 157.662 163.482C158.334 162.99 159.21 162.666 160.29 162.51L162.972 162.132V161.61C162.972 161.034 162.804 160.584 162.468 160.26C162.144 159.936 161.61 159.774 160.866 159.774C160.326 159.774 159.888 159.882 159.552 160.098C159.228 160.314 159 160.59 158.868 160.926C158.796 161.106 158.67 161.196 158.49 161.196H157.68C157.548 161.196 157.446 161.16 157.374 161.088C157.314 161.004 157.284 160.908 157.284 160.8C157.284 160.62 157.35 160.398 157.482 160.134C157.626 159.87 157.842 159.612 158.13 159.36C158.418 159.108 158.784 158.898 159.228 158.73C159.684 158.55 160.236 158.46 160.884 158.46C161.604 158.46 162.21 158.556 162.702 158.748C163.194 158.928 163.578 159.174 163.854 159.486C164.142 159.798 164.346 160.152 164.466 160.548C164.598 160.944 164.664 161.346 164.664 161.754V167.586C164.664 167.706 164.622 167.808 164.538 167.892C164.466 167.964 164.37 168 164.25 168H163.422C163.29 168 163.188 167.964 163.116 167.892C163.044 167.808 163.008 167.706 163.008 167.586V166.812C162.852 167.028 162.642 167.244 162.378 167.46C162.114 167.664 161.784 167.838 161.388 167.982C160.992 168.114 160.506 168.18 159.93 168.18ZM160.308 166.83C160.8 166.83 161.25 166.728 161.658 166.524C162.066 166.308 162.384 165.978 162.612 165.534C162.852 165.09 162.972 164.532 162.972 163.86V163.356L160.884 163.662C160.032 163.782 159.39 163.986 158.958 164.274C158.526 164.55 158.31 164.904 158.31 165.336C158.31 165.672 158.406 165.954 158.598 166.182C158.802 166.398 159.054 166.56 159.354 166.668C159.666 166.776 159.984 166.83 160.308 166.83ZM167.684 168C167.564 168 167.462 167.964 167.378 167.892C167.306 167.808 167.27 167.706 167.27 167.586V155.634C167.27 155.514 167.306 155.418 167.378 155.346C167.462 155.262 167.564 155.22 167.684 155.22H168.53C168.662 155.22 168.764 155.262 168.836 155.346C168.908 155.418 168.944 155.514 168.944 155.634V167.586C168.944 167.706 168.908 167.808 168.836 167.892C168.764 167.964 168.662 168 168.53 168H167.684ZM175.463 168.18C174.551 168.18 173.789 168.006 173.177 167.658C172.565 167.31 172.097 166.83 171.773 166.218C171.449 165.594 171.269 164.886 171.233 164.094C171.221 163.89 171.215 163.632 171.215 163.32C171.215 162.996 171.221 162.738 171.233 162.546C171.269 161.742 171.449 161.034 171.773 160.422C172.109 159.81 172.583 159.33 173.195 158.982C173.807 158.634 174.563 158.46 175.463 158.46C176.363 158.46 177.119 158.634 177.731 158.982C178.343 159.33 178.811 159.81 179.135 160.422C179.471 161.034 179.657 161.742 179.693 162.546C179.705 162.738 179.711 162.996 179.711 163.32C179.711 163.632 179.705 163.89 179.693 164.094C179.657 164.886 179.477 165.594 179.153 166.218C178.829 166.83 178.361 167.31 177.749 167.658C177.137 168.006 176.375 168.18 175.463 168.18ZM175.463 166.794C176.207 166.794 176.801 166.56 177.245 166.092C177.689 165.612 177.929 164.916 177.965 164.004C177.977 163.824 177.983 163.596 177.983 163.32C177.983 163.044 177.977 162.816 177.965 162.636C177.929 161.724 177.689 161.034 177.245 160.566C176.801 160.086 176.207 159.846 175.463 159.846C174.719 159.846 174.119 160.086 173.663 160.566C173.219 161.034 172.985 161.724 172.961 162.636C172.949 162.816 172.943 163.044 172.943 163.32C172.943 163.596 172.949 163.824 172.961 164.004C172.985 164.916 173.219 165.612 173.663 166.092C174.119 166.56 174.719 166.794 175.463 166.794ZM182.379 168C182.259 168 182.157 167.964 182.073 167.892C182.001 167.808 181.965 167.706 181.965 167.586V159.072C181.965 158.952 182.001 158.85 182.073 158.766C182.157 158.682 182.259 158.64 182.379 158.64H183.207C183.327 158.64 183.429 158.682 183.513 158.766C183.597 158.85 183.639 158.952 183.639 159.072V159.864C183.879 159.456 184.209 159.15 184.629 158.946C185.049 158.742 185.553 158.64 186.141 158.64H186.861C186.981 158.64 187.077 158.682 187.149 158.766C187.221 158.838 187.257 158.934 187.257 159.054V159.792C187.257 159.912 187.221 160.008 187.149 160.08C187.077 160.152 186.981 160.188 186.861 160.188H185.781C185.133 160.188 184.623 160.38 184.251 160.764C183.879 161.136 183.693 161.646 183.693 162.294V167.586C183.693 167.706 183.651 167.808 183.567 167.892C183.483 167.964 183.381 168 183.261 168H182.379ZM189.217 168C189.097 168 188.995 167.964 188.911 167.892C188.839 167.808 188.803 167.706 188.803 167.586V159.054C188.803 158.934 188.839 158.838 188.911 158.766C188.995 158.682 189.097 158.64 189.217 158.64H190.081C190.201 158.64 190.297 158.682 190.369 158.766C190.441 158.838 190.477 158.934 190.477 159.054V167.586C190.477 167.706 190.441 167.808 190.369 167.892C190.297 167.964 190.201 168 190.081 168H189.217ZM189.073 156.894C188.953 156.894 188.851 156.858 188.767 156.786C188.695 156.702 188.659 156.6 188.659 156.48V155.508C188.659 155.388 188.695 155.292 188.767 155.22C188.851 155.136 188.953 155.094 189.073 155.094H190.207C190.327 155.094 190.423 155.136 190.495 155.22C190.579 155.292 190.621 155.388 190.621 155.508V156.48C190.621 156.6 190.579 156.702 190.495 156.786C190.423 156.858 190.327 156.894 190.207 156.894H189.073ZM196.923 168.18C195.687 168.18 194.703 167.802 193.971 167.046C193.239 166.278 192.837 165.234 192.765 163.914C192.753 163.758 192.747 163.56 192.747 163.32C192.747 163.068 192.753 162.864 192.765 162.708C192.813 161.856 193.011 161.112 193.359 160.476C193.707 159.828 194.181 159.33 194.781 158.982C195.393 158.634 196.107 158.46 196.923 158.46C197.835 158.46 198.597 158.652 199.209 159.036C199.833 159.42 200.307 159.966 200.631 160.674C200.955 161.382 201.117 162.21 201.117 163.158V163.464C201.117 163.596 201.075 163.698 200.991 163.77C200.919 163.842 200.823 163.878 200.703 163.878H194.475C194.475 163.89 194.475 163.914 194.475 163.95C194.475 163.986 194.475 164.016 194.475 164.04C194.499 164.532 194.607 164.994 194.799 165.426C194.991 165.846 195.267 166.188 195.627 166.452C195.987 166.716 196.419 166.848 196.923 166.848C197.355 166.848 197.715 166.782 198.003 166.65C198.291 166.518 198.525 166.374 198.705 166.218C198.885 166.05 199.005 165.924 199.065 165.84C199.173 165.684 199.257 165.594 199.317 165.57C199.377 165.534 199.473 165.516 199.605 165.516H200.469C200.589 165.516 200.685 165.552 200.757 165.624C200.841 165.684 200.877 165.774 200.865 165.894C200.853 166.074 200.757 166.296 200.577 166.56C200.397 166.812 200.139 167.064 199.803 167.316C199.467 167.568 199.059 167.778 198.579 167.946C198.099 168.102 197.547 168.18 196.923 168.18ZM194.475 162.636H199.407V162.582C199.407 162.042 199.305 161.562 199.101 161.142C198.909 160.722 198.627 160.392 198.255 160.152C197.883 159.9 197.439 159.774 196.923 159.774C196.407 159.774 195.963 159.9 195.591 160.152C195.231 160.392 194.955 160.722 194.763 161.142C194.571 161.562 194.475 162.042 194.475 162.582V162.636ZM208.33 168C208.21 168 208.108 167.964 208.024 167.892C207.952 167.808 207.916 167.706 207.916 167.586V155.832C207.916 155.7 207.952 155.598 208.024 155.526C208.108 155.442 208.21 155.4 208.33 155.4H209.23C209.374 155.4 209.482 155.436 209.554 155.508C209.626 155.58 209.668 155.64 209.68 155.688L213.496 162.96L217.33 155.688C217.354 155.64 217.396 155.58 217.456 155.508C217.528 155.436 217.636 155.4 217.78 155.4H218.662C218.794 155.4 218.896 155.442 218.968 155.526C219.052 155.598 219.094 155.7 219.094 155.832V167.586C219.094 167.706 219.052 167.808 218.968 167.892C218.896 167.964 218.794 168 218.662 168H217.78C217.66 168 217.558 167.964 217.474 167.892C217.402 167.808 217.366 167.706 217.366 167.586V158.73L214.36 164.598C214.312 164.718 214.24 164.814 214.144 164.886C214.048 164.946 213.928 164.976 213.784 164.976H213.226C213.07 164.976 212.944 164.946 212.848 164.886C212.764 164.814 212.692 164.718 212.632 164.598L209.626 158.73V167.586C209.626 167.706 209.584 167.808 209.5 167.892C209.428 167.964 209.332 168 209.212 168H208.33ZM225.807 168.18C224.895 168.18 224.133 168.006 223.521 167.658C222.909 167.31 222.441 166.83 222.117 166.218C221.793 165.594 221.613 164.886 221.577 164.094C221.565 163.89 221.559 163.632 221.559 163.32C221.559 162.996 221.565 162.738 221.577 162.546C221.613 161.742 221.793 161.034 222.117 160.422C222.453 159.81 222.927 159.33 223.539 158.982C224.151 158.634 224.907 158.46 225.807 158.46C226.707 158.46 227.463 158.634 228.075 158.982C228.687 159.33 229.155 159.81 229.479 160.422C229.815 161.034 230.001 161.742 230.037 162.546C230.049 162.738 230.055 162.996 230.055 163.32C230.055 163.632 230.049 163.89 230.037 164.094C230.001 164.886 229.821 165.594 229.497 166.218C229.173 166.83 228.705 167.31 228.093 167.658C227.481 168.006 226.719 168.18 225.807 168.18ZM225.807 166.794C226.551 166.794 227.145 166.56 227.589 166.092C228.033 165.612 228.273 164.916 228.309 164.004C228.321 163.824 228.327 163.596 228.327 163.32C228.327 163.044 228.321 162.816 228.309 162.636C228.273 161.724 228.033 161.034 227.589 160.566C227.145 160.086 226.551 159.846 225.807 159.846C225.063 159.846 224.463 160.086 224.007 160.566C223.563 161.034 223.329 161.724 223.305 162.636C223.293 162.816 223.287 163.044 223.287 163.32C223.287 163.596 223.293 163.824 223.305 164.004C223.329 164.916 223.563 165.612 224.007 166.092C224.463 166.56 225.063 166.794 225.807 166.794ZM232.723 168C232.603 168 232.501 167.964 232.417 167.892C232.345 167.808 232.309 167.706 232.309 167.586V159.054C232.309 158.934 232.345 158.838 232.417 158.766C232.501 158.682 232.603 158.64 232.723 158.64H233.569C233.689 158.64 233.785 158.682 233.857 158.766C233.941 158.838 233.983 158.934 233.983 159.054V159.846C234.295 159.438 234.685 159.108 235.153 158.856C235.633 158.592 236.245 158.46 236.989 158.46C237.769 158.46 238.429 158.634 238.969 158.982C239.521 159.318 239.935 159.792 240.211 160.404C240.487 161.004 240.625 161.706 240.625 162.51V167.586C240.625 167.706 240.589 167.808 240.517 167.892C240.445 167.964 240.349 168 240.229 168H239.329C239.209 168 239.107 167.964 239.023 167.892C238.951 167.808 238.915 167.706 238.915 167.586V162.6C238.915 161.76 238.711 161.106 238.303 160.638C237.895 160.158 237.295 159.918 236.503 159.918C235.759 159.918 235.159 160.158 234.703 160.638C234.259 161.106 234.037 161.76 234.037 162.6V167.586C234.037 167.706 233.995 167.808 233.911 167.892C233.839 167.964 233.743 168 233.623 168H232.723ZM243.639 168C243.519 168 243.417 167.964 243.333 167.892C243.261 167.808 243.225 167.706 243.225 167.586V159.054C243.225 158.934 243.261 158.838 243.333 158.766C243.417 158.682 243.519 158.64 243.639 158.64H244.503C244.623 158.64 244.719 158.682 244.791 158.766C244.863 158.838 244.899 158.934 244.899 159.054V167.586C244.899 167.706 244.863 167.808 244.791 167.892C244.719 167.964 244.623 168 244.503 168H243.639ZM243.495 156.894C243.375 156.894 243.273 156.858 243.189 156.786C243.117 156.702 243.081 156.6 243.081 156.48V155.508C243.081 155.388 243.117 155.292 243.189 155.22C243.273 155.136 243.375 155.094 243.495 155.094H244.629C244.749 155.094 244.845 155.136 244.917 155.22C245.001 155.292 245.043 155.388 245.043 155.508V156.48C245.043 156.6 245.001 156.702 244.917 156.786C244.845 156.858 244.749 156.894 244.629 156.894H243.495ZM251.238 168C250.566 168 250.02 167.874 249.6 167.622C249.18 167.358 248.874 166.992 248.682 166.524C248.49 166.044 248.394 165.48 248.394 164.832V160.08H246.99C246.87 160.08 246.768 160.044 246.684 159.972C246.612 159.888 246.576 159.786 246.576 159.666V159.054C246.576 158.934 246.612 158.838 246.684 158.766C246.768 158.682 246.87 158.64 246.99 158.64H248.394V155.634C248.394 155.514 248.43 155.418 248.502 155.346C248.586 155.262 248.688 155.22 248.808 155.22H249.654C249.774 155.22 249.87 155.262 249.942 155.346C250.026 155.418 250.068 155.514 250.068 155.634V158.64H252.3C252.42 158.64 252.516 158.682 252.588 158.766C252.672 158.838 252.714 158.934 252.714 159.054V159.666C252.714 159.786 252.672 159.888 252.588 159.972C252.516 160.044 252.42 160.08 252.3 160.08H250.068V164.706C250.068 165.27 250.164 165.714 250.356 166.038C250.548 166.362 250.89 166.524 251.382 166.524H252.48C252.6 166.524 252.696 166.566 252.768 166.65C252.852 166.722 252.894 166.818 252.894 166.938V167.586C252.894 167.706 252.852 167.808 252.768 167.892C252.696 167.964 252.6 168 252.48 168H251.238ZM258.449 168.18C257.537 168.18 256.775 168.006 256.163 167.658C255.551 167.31 255.083 166.83 254.759 166.218C254.435 165.594 254.255 164.886 254.219 164.094C254.207 163.89 254.201 163.632 254.201 163.32C254.201 162.996 254.207 162.738 254.219 162.546C254.255 161.742 254.435 161.034 254.759 160.422C255.095 159.81 255.569 159.33 256.181 158.982C256.793 158.634 257.549 158.46 258.449 158.46C259.349 158.46 260.105 158.634 260.717 158.982C261.329 159.33 261.797 159.81 262.121 160.422C262.457 161.034 262.643 161.742 262.679 162.546C262.691 162.738 262.697 162.996 262.697 163.32C262.697 163.632 262.691 163.89 262.679 164.094C262.643 164.886 262.463 165.594 262.139 166.218C261.815 166.83 261.347 167.31 260.735 167.658C260.123 168.006 259.361 168.18 258.449 168.18ZM258.449 166.794C259.193 166.794 259.787 166.56 260.231 166.092C260.675 165.612 260.915 164.916 260.951 164.004C260.963 163.824 260.969 163.596 260.969 163.32C260.969 163.044 260.963 162.816 260.951 162.636C260.915 161.724 260.675 161.034 260.231 160.566C259.787 160.086 259.193 159.846 258.449 159.846C257.705 159.846 257.105 160.086 256.649 160.566C256.205 161.034 255.971 161.724 255.947 162.636C255.935 162.816 255.929 163.044 255.929 163.32C255.929 163.596 255.935 163.824 255.947 164.004C255.971 164.916 256.205 165.612 256.649 166.092C257.105 166.56 257.705 166.794 258.449 166.794ZM265.365 168C265.245 168 265.143 167.964 265.059 167.892C264.987 167.808 264.951 167.706 264.951 167.586V159.072C264.951 158.952 264.987 158.85 265.059 158.766C265.143 158.682 265.245 158.64 265.365 158.64H266.193C266.313 158.64 266.415 158.682 266.499 158.766C266.583 158.85 266.625 158.952 266.625 159.072V159.864C266.865 159.456 267.195 159.15 267.615 158.946C268.035 158.742 268.539 158.64 269.127 158.64H269.847C269.967 158.64 270.063 158.682 270.135 158.766C270.207 158.838 270.243 158.934 270.243 159.054V159.792C270.243 159.912 270.207 160.008 270.135 160.08C270.063 160.152 269.967 160.188 269.847 160.188H268.767C268.119 160.188 267.609 160.38 267.237 160.764C266.865 161.136 266.679 161.646 266.679 162.294V167.586C266.679 167.706 266.637 167.808 266.553 167.892C266.469 167.964 266.367 168 266.247 168H265.365Z" fill="white"/>
<path d="M311.112 157.15C312.56 159.304 313.326 161.843 313.312 164.438C313.312 168.118 310.481 170.991 310.361 171.111C310.231 171.236 310.058 171.306 309.878 171.304C309.697 171.303 309.525 171.231 309.397 171.103C309.27 170.976 309.197 170.804 309.196 170.623C309.194 170.443 309.263 170.269 309.388 170.14C309.414 170.114 311.938 167.539 311.938 164.438C311.93 162.595 311.501 160.779 310.683 159.128C310.159 160.28 309.209 161.184 308.031 161.649C307.928 161.684 307.818 161.693 307.71 161.677C307.602 161.661 307.5 161.619 307.411 161.555C307.323 161.492 307.25 161.408 307.201 161.311C307.151 161.214 307.125 161.106 307.125 160.997C307.124 154.848 303.022 152.911 300.834 152.315C303.111 157.595 298.691 161.48 298.643 161.522C298.552 161.599 298.444 161.651 298.327 161.674C298.211 161.697 298.091 161.69 297.978 161.652C296.796 161.19 295.841 160.284 295.317 159.128C294.499 160.779 294.07 162.595 294.062 164.438C294.062 167.539 296.586 170.114 296.612 170.14C296.737 170.269 296.806 170.443 296.804 170.623C296.803 170.804 296.73 170.976 296.603 171.103C296.475 171.231 296.303 171.303 296.122 171.304C295.942 171.306 295.769 171.236 295.639 171.111C295.519 170.991 292.688 168.118 292.688 164.438C292.674 161.843 293.44 159.304 294.888 157.15C294.966 157.046 295.071 156.966 295.193 156.92C295.314 156.874 295.446 156.863 295.574 156.889C295.701 156.915 295.818 156.976 295.912 157.066C296.006 157.155 296.073 157.27 296.104 157.396C296.11 157.417 296.641 159.441 298.045 160.19C299.168 159.115 299.876 157.679 300.047 156.134C300.218 154.59 299.84 153.034 298.979 151.739C298.912 151.631 298.876 151.506 298.875 151.379C298.874 151.252 298.909 151.126 298.975 151.017C299.041 150.908 299.136 150.819 299.25 150.761C299.364 150.703 299.492 150.678 299.62 150.69C299.705 150.697 307.769 151.471 308.454 159.842C309.138 159.165 309.635 158.322 309.896 157.396C309.927 157.27 309.994 157.155 310.088 157.066C310.182 156.976 310.299 156.915 310.426 156.889C310.554 156.863 310.686 156.874 310.807 156.92C310.929 156.966 311.035 157.046 311.112 157.15ZM302.493 160.337C302.366 160.302 302.231 160.305 302.105 160.346C301.979 160.386 301.867 160.462 301.783 160.564C301.699 160.666 301.646 160.79 301.63 160.921C301.615 161.053 301.638 161.186 301.696 161.305C301.987 161.985 302.115 162.725 302.068 163.463C302.021 164.202 301.801 164.92 301.426 165.558C300.906 165.184 300.479 164.696 300.178 164.13C300.125 164.025 300.047 163.935 299.95 163.869C299.853 163.803 299.741 163.763 299.624 163.752C299.507 163.741 299.39 163.76 299.282 163.808C299.175 163.855 299.082 163.93 299.013 164.025C298.188 165.124 297.274 168.006 299.714 171.055C299.769 171.128 299.839 171.19 299.918 171.236C299.998 171.283 300.086 171.312 300.177 171.324C300.269 171.335 300.361 171.328 300.45 171.303C300.539 171.278 300.621 171.236 300.693 171.178C300.765 171.121 300.825 171.049 300.868 170.968C300.912 170.887 300.939 170.798 300.948 170.706C300.957 170.615 300.947 170.522 300.919 170.434C300.891 170.347 300.846 170.265 300.786 170.195C299.312 168.351 299.389 166.764 299.672 165.808C300.14 166.337 300.697 166.779 301.318 167.115C301.462 167.188 301.626 167.207 301.783 167.17C301.94 167.133 302.079 167.042 302.175 166.912C302.691 166.248 303.064 165.483 303.27 164.667C303.475 163.851 303.51 163.001 303.37 162.171C304.585 162.746 305.579 163.703 306.2 164.896C306.903 166.395 306.772 168.226 305.812 170.34C305.736 170.506 305.73 170.695 305.794 170.866C305.858 171.037 305.987 171.175 306.153 171.251C306.242 171.292 306.339 171.313 306.438 171.312C306.569 171.312 306.699 171.274 306.81 171.203C306.92 171.132 307.008 171.03 307.063 170.91C308.199 168.411 308.327 166.192 307.444 164.311C306.047 161.336 302.638 160.376 302.494 160.337L302.493 160.337ZM320.188 158.938V163.062C320.187 163.609 319.969 164.134 319.583 164.52C319.196 164.907 318.672 165.124 318.125 165.125H317.438V172C317.435 172.828 317.133 173.628 316.587 174.251C316.041 174.874 315.288 175.279 314.468 175.39L312.604 179.584C312.334 180.191 311.893 180.707 311.336 181.07C310.778 181.432 310.127 181.625 309.463 181.625H296.538C295.873 181.625 295.222 181.432 294.664 181.07C294.107 180.707 293.666 180.191 293.396 179.584L291.532 175.39C290.712 175.279 289.959 174.874 289.413 174.251C288.867 173.628 288.565 172.828 288.562 172V165.125H287.875C287.328 165.124 286.804 164.907 286.417 164.52C286.031 164.134 285.813 163.609 285.812 163.062V158.938C285.813 158.391 286.031 157.866 286.417 157.48C286.804 157.093 287.328 156.876 287.875 156.875H288.562V150C288.565 149.172 288.867 148.372 289.413 147.749C289.959 147.126 290.712 146.721 291.532 146.61L293.396 142.416C293.666 141.809 294.107 141.293 294.664 140.93C295.222 140.568 295.873 140.375 296.538 140.375H309.463C310.127 140.375 310.778 140.568 311.336 140.93C311.893 141.293 312.334 141.809 312.604 142.416L314.468 146.61C315.288 146.721 316.041 147.126 316.587 147.749C317.133 148.372 317.435 149.172 317.438 150V156.875H318.125C318.672 156.876 319.196 157.093 319.583 157.48C319.969 157.866 320.187 158.391 320.188 158.938ZM288.562 163.75V158.25H287.875C287.693 158.25 287.518 158.323 287.389 158.452C287.26 158.58 287.188 158.755 287.188 158.938V163.062C287.188 163.245 287.26 163.42 287.389 163.548C287.518 163.677 287.693 163.75 287.875 163.75H288.562ZM293.058 146.562H312.941L311.347 142.974C311.185 142.61 310.92 142.301 310.586 142.083C310.251 141.866 309.861 141.75 309.463 141.75H296.538C296.139 141.75 295.748 141.866 295.414 142.083C295.079 142.3 294.815 142.61 294.652 142.974L293.058 146.562ZM312.941 175.438H293.059L294.653 179.026C294.815 179.39 295.08 179.699 295.414 179.917C295.749 180.134 296.139 180.25 296.538 180.25H309.463C309.861 180.25 310.252 180.134 310.586 179.917C310.921 179.7 311.185 179.39 311.348 179.026L312.941 175.438ZM316.062 150C316.062 149.453 315.844 148.929 315.458 148.542C315.071 148.156 314.547 147.938 314 147.938H292C291.453 147.938 290.929 148.156 290.542 148.542C290.156 148.929 289.938 149.453 289.938 150V172C289.938 172.547 290.156 173.071 290.542 173.458C290.929 173.844 291.453 174.062 292 174.062H314C314.547 174.062 315.071 173.844 315.458 173.458C315.844 173.071 316.062 172.547 316.062 172V150ZM318.812 158.938C318.812 158.755 318.74 158.58 318.611 158.452C318.482 158.323 318.307 158.25 318.125 158.25H317.438V163.75H318.125C318.307 163.75 318.482 163.677 318.611 163.548C318.74 163.42 318.812 163.245 318.812 163.062V158.938Z" fill="white"/>
<g clip-path="url(#clip0_529_284)">
<path d="M101.716 178.514C90.984 178.532 82.1738 169.795 82.1043 159.063C82.0864 156.297 82.6423 153.662 83.6598 151.272C84.1922 150.021 82.8323 148.802 81.6631 149.495C74.9341 153.488 70.4007 160.791 70.3095 169.162C70.17 181.965 80.656 192.571 93.4603 192.571C103.918 192.571 112.756 185.637 115.629 176.116C116.018 174.823 114.518 173.784 113.439 174.595C110.174 177.05 106.115 178.508 101.716 178.514Z" fill="#EEC06B"/>
<path d="M114.756 174.396C111.222 182.662 103.018 188.454 93.4603 188.454C81.4365 188.454 71.4578 179.101 70.4012 167.359C70.3475 167.959 70.3169 168.56 70.3095 169.162C70.17 181.965 80.656 192.571 93.4603 192.571C103.918 192.571 112.756 185.637 115.629 176.116C115.866 175.327 115.4 174.634 114.756 174.396Z" fill="#E9A52D"/>
<path d="M94.6264 177.851V192.541C102.182 192.166 108.784 188.17 112.733 182.251C112.678 180.02 111.768 178.003 110.318 176.512C107.723 177.789 104.804 178.51 101.717 178.515C99.2031 178.519 96.7951 178.042 94.5801 177.173C94.6096 177.396 94.6264 177.622 94.6264 177.851Z" fill="#E9A52D"/>
<path d="M87.6335 172.537C88.2447 173.169 88.8973 173.759 89.587 174.303C90.8448 175.296 91.5894 176.802 91.5894 178.405V202.357C91.5894 203.264 92.3251 204 93.2326 204H97.3405C100.62 204 103.279 201.341 103.279 198.061V196.494H105.246C107.706 196.494 109.701 194.499 109.701 192.039V183.019C109.701 178.303 105.878 174.479 101.161 174.479H97.5861V174.173C97.5861 171.572 94.9869 169.772 92.5521 170.688L87.6335 172.537Z" fill="#DDEBFD"/>
<path d="M101.161 174.479H98.2218C102.938 174.479 106.762 178.303 106.762 183.019V192.039C106.762 194.499 104.767 196.494 102.306 196.494H101.907C101.042 196.494 100.34 197.196 100.34 198.061C100.34 201.341 97.6811 204 94.4014 204H97.3403C100.62 204 103.279 201.341 103.279 198.061V196.494H105.246C107.706 196.494 109.701 194.499 109.701 192.039V183.019C109.701 178.303 105.877 174.479 101.161 174.479Z" fill="#BED9FD"/>
<path d="M98.3907 182.822C98.4964 182.822 98.601 182.801 98.6987 182.761C98.7963 182.721 98.885 182.661 98.9598 182.586C99.0345 182.512 99.0938 182.423 99.1342 182.325C99.1746 182.228 99.1954 182.123 99.1954 182.017V174.479H97.5859V182.017C97.5859 182.123 97.6067 182.228 97.6472 182.325C97.6876 182.423 97.7469 182.512 97.8216 182.586C97.8963 182.661 97.9851 182.721 98.0827 182.761C98.1803 182.801 98.285 182.822 98.3907 182.822ZM104.084 187.597C103.978 187.597 103.873 187.618 103.776 187.658C103.678 187.699 103.589 187.758 103.515 187.833C103.44 187.907 103.381 187.996 103.34 188.094C103.3 188.191 103.279 188.296 103.279 188.402V196.494H104.888V188.402C104.888 188.188 104.804 187.984 104.653 187.833C104.502 187.682 104.297 187.597 104.084 187.597Z" fill="#BED9FD"/>
<path d="M102.531 166.945H99.2594C99.0515 166.945 98.8475 166.889 98.6685 166.783C98.4895 166.678 98.342 166.526 98.2414 166.344C98.1408 166.162 98.0908 165.957 98.0964 165.749C98.1021 165.541 98.1633 165.339 98.2737 165.163L100.972 160.865H98.7145C98.4858 160.865 98.2665 160.774 98.1048 160.612C97.9431 160.451 97.8523 160.231 97.8523 160.003C97.8523 159.774 97.9431 159.555 98.1048 159.393C98.2665 159.231 98.4858 159.141 98.7145 159.141H101.986C102.194 159.141 102.398 159.196 102.577 159.302C102.756 159.408 102.904 159.559 103.004 159.741C103.105 159.923 103.155 160.129 103.149 160.336C103.144 160.544 103.082 160.747 102.972 160.923L100.274 165.22H102.531C102.76 165.22 102.979 165.311 103.141 165.473C103.303 165.635 103.393 165.854 103.393 166.082C103.393 166.311 103.303 166.53 103.141 166.692C102.979 166.854 102.76 166.945 102.531 166.945ZM97.6367 153.804H94.3648C94.157 153.804 93.953 153.748 93.774 153.643C93.595 153.537 93.4475 153.386 93.3469 153.204C93.2463 153.022 93.1962 152.816 93.2019 152.609C93.2076 152.401 93.2688 152.198 93.3792 152.022L96.0774 147.724H93.8199C93.593 147.722 93.3762 147.63 93.2166 147.468C93.057 147.307 92.9675 147.089 92.9675 146.862C92.9675 146.635 93.057 146.417 93.2166 146.256C93.3762 146.095 93.593 146.003 93.8199 146H97.092C97.2998 146 97.5038 146.056 97.6829 146.161C97.8619 146.267 98.0093 146.419 98.1099 146.601C98.2105 146.783 98.2605 146.988 98.2547 147.196C98.249 147.404 98.1877 147.606 98.0773 147.782L95.3793 152.08H97.6367C97.7508 152.078 97.864 152.1 97.9697 152.142C98.0755 152.185 98.1717 152.249 98.2528 152.329C98.334 152.409 98.3984 152.504 98.4423 152.61C98.4863 152.715 98.5089 152.828 98.5089 152.942C98.5089 153.056 98.4863 153.169 98.4423 153.274C98.3984 153.379 98.334 153.475 98.2528 153.555C98.1717 153.635 98.0755 153.699 97.9697 153.741C97.864 153.784 97.7508 153.805 97.6367 153.804ZM112.738 159.611H109.466C109.258 159.61 109.054 159.555 108.875 159.449C108.696 159.343 108.549 159.192 108.448 159.01C108.348 158.828 108.297 158.622 108.303 158.415C108.309 158.207 108.37 158.004 108.481 157.828L111.179 153.531H108.921C108.807 153.533 108.693 153.512 108.587 153.469C108.481 153.427 108.384 153.364 108.302 153.283C108.221 153.203 108.156 153.107 108.112 153.002C108.068 152.896 108.045 152.783 108.045 152.669C108.045 152.554 108.068 152.441 108.112 152.335C108.156 152.23 108.221 152.134 108.302 152.054C108.384 151.974 108.481 151.911 108.587 151.868C108.693 151.826 108.807 151.805 108.921 151.806H112.193C112.401 151.807 112.605 151.862 112.784 151.968C112.963 152.074 113.111 152.225 113.211 152.407C113.312 152.589 113.362 152.795 113.356 153.002C113.35 153.21 113.289 153.413 113.179 153.589L110.481 157.886H112.738C112.852 157.884 112.966 157.905 113.072 157.948C113.179 157.99 113.275 158.053 113.357 158.134C113.438 158.214 113.503 158.31 113.547 158.415C113.592 158.521 113.614 158.634 113.614 158.748C113.614 158.863 113.592 158.976 113.547 159.082C113.503 159.187 113.438 159.283 113.357 159.363C113.275 159.443 113.179 159.506 113.072 159.549C112.966 159.591 112.852 159.612 112.738 159.611Z" fill="#8C818F"/>
</g>
<g clip-path="url(#clip1_529_284)">
<path d="M320.473 84.5811C320.078 83.8988 319.155 84.0027 318.893 84.7603L318.875 84.8107C318.542 85.7634 317.291 85.6035 317.161 84.5911C315.569 72.1743 309.833 64 303 64L302.965 64.0001C301.445 64.0064 300.369 65.6672 300.818 67.2894C301.025 68.0361 301.135 68.83 301.134 69.6529C301.126 73.971 297.981 77.5228 294.115 77.5769C293.463 77.5864 292.813 77.4965 292.188 77.3103C291.248 77.0302 290.271 77.6123 289.992 78.6536C289.498 80.4971 289.108 82.4821 288.838 84.5892C288.709 85.6024 287.458 85.7637 287.125 84.8103L287.107 84.7604C286.845 84.0028 285.921 83.8989 285.527 84.5812C284.285 86.7303 283.588 89.143 283.588 91.6925C283.588 100.699 292.279 108 303 108C303.013 108 303.026 108 303.039 108L303.054 108C303.069 108 303.084 107.999 303.099 107.999C313.774 107.954 322.412 100.671 322.412 91.6925C322.412 89.143 321.715 86.7303 320.473 84.5811Z" fill="url(#paint0_linear_529_284)"/>
<path d="M294.353 74.4954C295.73 74.4954 296.846 73.3794 296.846 72.0027C296.846 70.626 295.73 66.5156 294.353 66.5156C292.976 66.5156 291.86 70.626 291.86 72.0027C291.86 73.3795 292.976 74.4954 294.353 74.4954Z" fill="url(#paint1_linear_529_284)"/>
<path d="M315.867 94.1229C315.867 101.229 310.106 106.99 303 106.99C295.893 106.99 290.133 101.229 290.133 94.1229C290.133 87.0164 295.742 77.2863 302.848 77.2863C309.955 77.2863 315.867 87.0165 315.867 94.1229Z" fill="url(#paint2_linear_529_284)"/>
<path d="M302.848 77.2863C302.263 77.2863 301.688 77.3535 301.125 77.4787C307.436 78.873 312.415 87.6019 312.415 94.1229C312.415 100.644 307.563 106.031 301.273 106.875C301.838 106.95 302.414 106.99 303 106.99C310.106 106.99 315.867 101.229 315.867 94.1228C315.867 87.0163 309.955 77.2863 302.848 77.2863Z" fill="url(#paint3_linear_529_284)"/>
<path d="M313.384 95.4556C313.384 101.19 308.735 105.839 303 105.839C297.265 105.839 292.616 101.19 292.616 95.4556C292.616 89.7209 297.265 83.3981 303 83.3981C308.735 83.3981 313.384 89.7209 313.384 95.4556Z" fill="url(#paint4_linear_529_284)"/>
<path d="M320.473 84.5811C320.078 83.8988 319.155 84.0027 318.893 84.7603L318.875 84.8107C318.542 85.7634 317.291 85.6035 317.161 84.5911C315.569 72.1743 309.833 64 303 64L302.965 64.0001C302.562 64.0017 302.19 64.1207 301.87 64.3235C307.652 65.9495 312.301 73.6108 313.709 84.5911C313.838 85.6035 315.09 85.7634 315.422 84.8107L315.44 84.7603C315.702 84.0027 316.626 83.8988 317.02 84.5811C318.262 86.7303 318.959 89.1429 318.959 91.6925C318.959 100.211 311.183 107.202 301.27 107.935C301.84 107.977 302.417 108 303 108C303.013 108 303.026 108 303.039 108L303.054 108C303.069 108 303.084 107.999 303.099 107.999C313.774 107.954 322.412 100.671 322.412 91.6925C322.412 89.143 321.715 86.7303 320.473 84.5811Z" fill="url(#paint5_linear_529_284)"/>
<path d="M313.384 95.4556C313.384 93.2723 312.709 91.0041 311.558 89.0316C312.111 90.7675 312.415 92.5125 312.415 94.1229C312.415 99.0866 309.604 103.393 305.487 105.539C310.021 104.424 313.384 100.333 313.384 95.4556Z" fill="url(#paint6_linear_529_284)"/>
<path d="M297.582 96.4113L298.76 95.3222C298.849 95.2332 298.893 95.1333 298.893 95.0221C298.893 94.6554 298.438 94.1997 298.06 94.1997C297.938 94.1997 297.815 94.2442 297.727 94.3331L295.882 96.1223V91.766C295.882 91.4548 295.493 91.2437 295.004 91.2437C294.515 91.2437 294.159 91.4548 294.159 91.766V99.0229C294.159 99.2896 294.515 99.5563 295.004 99.5563C295.493 99.5563 295.882 99.2896 295.882 99.0229V97.9894L296.448 97.4671L297.793 99.4563C297.893 99.6008 298.038 99.6674 298.204 99.6674C298.616 99.6674 299.193 99.2117 299.193 98.8117C299.193 98.7228 299.16 98.6339 299.104 98.5451L297.582 96.4113Z" fill="url(#paint7_linear_529_284)"/>
<path d="M303.25 97.8672C302.95 97.8672 302.794 98.1672 302.194 98.1672C301.516 98.1672 301.261 97.856 301.261 97.3115V96.5558C301.261 96.0112 301.516 95.7001 302.183 95.7001C302.783 95.7001 302.983 95.9668 303.25 95.9668C303.65 95.9668 303.917 95.4445 303.917 95.1222C303.917 94.6332 303.128 94.1997 302.039 94.1997C300.294 94.1997 299.538 95.2332 299.538 96.5557V97.3114C299.538 98.656 300.294 99.6674 302.061 99.6674C303.139 99.6674 303.984 99.1895 303.984 98.6893C303.984 98.3562 303.717 97.8672 303.25 97.8672ZM306.528 94.1998C305.706 94.1998 304.628 94.5665 304.628 95.0889C304.628 95.4889 304.828 95.9445 305.206 95.9445C305.506 95.9445 305.595 95.5779 306.506 95.5779C307.14 95.5779 307.34 96.0224 307.34 96.4002V96.5113H306.94C305.406 96.5113 304.339 96.878 304.339 98.1895C304.339 99.2007 304.995 99.6675 305.762 99.6675C306.54 99.6675 307.051 99.2452 307.451 98.7785V99.023C307.451 99.323 307.784 99.5564 308.218 99.5564C308.707 99.5564 309.062 99.323 309.062 99.023V96.3781C309.062 95.2555 308.351 94.1998 306.528 94.1998ZM307.34 97.3893C307.34 97.956 306.851 98.4117 306.506 98.4117C306.251 98.4117 306.073 98.2672 306.073 97.945C306.073 97.4116 306.662 97.3448 307.295 97.3448H307.34V97.3893Z" fill="url(#paint8_linear_529_284)"/>
<path d="M310.974 91.2437C310.474 91.2437 310.118 91.4548 310.118 91.766V99.0229C310.118 99.2896 310.474 99.5563 310.974 99.5563C311.452 99.5563 311.841 99.2896 311.841 99.0229V91.766C311.841 91.4549 311.452 91.2437 310.974 91.2437Z" fill="url(#paint9_linear_529_284)"/>
<path d="M311.841 99.0229V97.9279C311.671 98.4756 311.465 99.0112 311.224 99.5313C311.58 99.4591 311.841 99.2411 311.841 99.0229Z" fill="url(#paint10_linear_529_284)"/>
</g>
<defs>
<filter id="filter0_d_529_284" x="-29" y="0" width="448" height="303" filterUnits="userSpaceOnUse" color-interpolation-filters="sRGB">
<feFlood flood-opacity="0" result="BackgroundImageFix"/>
<feColorMatrix in="SourceAlpha" type="matrix" values="0 0 0 0 0 0 0 0 0 0 0 0 0 0 0 0 0 0 127 0" result="hardAlpha"/>
<feOffset dy="20"/>
<feGaussianBlur stdDeviation="30"/>
<feComposite in2="hardAlpha" operator="out"/>
<feColorMatrix type="matrix" values="0 0 0 0 0 0 0 0 0 0 0 0 0 0 0 0 0 0 0.25 0"/>
<feBlend mode="normal" in2="BackgroundImageFix" result="effect1_dropShadow_529_284"/>
<feBlend mode="normal" in="SourceGraphic" in2="effect1_dropShadow_529_284" result="shape"/>
</filter>
<linearGradient id="paint0_linear_529_284" x1="282.553" y1="86" x2="322.277" y2="86" gradientUnits="userSpaceOnUse">
<stop stop-color="#FFF9DF"/>
<stop offset="0.593" stop-color="#FFE177"/>
<stop offset="1" stop-color="#FEB137"/>
</linearGradient>
<linearGradient id="paint1_linear_529_284" x1="282.553" y1="70.5056" x2="322.277" y2="70.5056" gradientUnits="userSpaceOnUse">
<stop stop-color="#FFF9DF"/>
<stop offset="0.593" stop-color="#FFE177"/>
<stop offset="1" stop-color="#FEB137"/>
</linearGradient>
<linearGradient id="paint2_linear_529_284" x1="289.282" y1="92.1382" x2="315.346" y2="92.1382" gradientUnits="userSpaceOnUse">
<stop stop-color="#FFE177"/>
<stop offset="1" stop-color="#FEB137"/>
</linearGradient>
<linearGradient id="paint3_linear_529_284" x1="298.542" y1="92.1382" x2="313.311" y2="92.1382" gradientUnits="userSpaceOnUse">
<stop stop-color="#FFD15B"/>
<stop offset="1" stop-color="#ECA026"/>
</linearGradient>
<linearGradient id="paint4_linear_529_284" x1="291.633" y1="94.6187" x2="315.349" y2="94.6187" gradientUnits="userSpaceOnUse">
<stop stop-color="#FE99A0"/>
<stop offset="0.593" stop-color="#FE646F"/>
<stop offset="1" stop-color="#E41F2D"/>
</linearGradient>
<linearGradient id="paint5_linear_529_284" x1="287.039" y1="86" x2="316.966" y2="86" gradientUnits="userSpaceOnUse">
<stop stop-color="#FFF9DF"/>
<stop offset="0.593" stop-color="#FFE177"/>
<stop offset="1" stop-color="#FEB137"/>
</linearGradient>
<linearGradient id="paint6_linear_529_284" x1="297.565" y1="97.2852" x2="310.092" y2="97.2852" gradientUnits="userSpaceOnUse">
<stop stop-color="#FE99A0"/>
<stop offset="0.593" stop-color="#FE646F"/>
<stop offset="1" stop-color="#E41F2D"/>
</linearGradient>
<linearGradient id="paint7_linear_529_284" x1="294.459" y1="95.4556" x2="313.452" y2="95.4556" gradientUnits="userSpaceOnUse">
<stop stop-color="#F8F6F7"/>
<stop offset="0.179" stop-color="#F8F6F7"/>
<stop offset="1" stop-color="#E7E6F5"/>
</linearGradient>
<linearGradient id="paint8_linear_529_284" x1="294.459" y1="96.9337" x2="313.452" y2="96.9337" gradientUnits="userSpaceOnUse">
<stop stop-color="#F8F6F7"/>
<stop offset="0.179" stop-color="#F8F6F7"/>
<stop offset="1" stop-color="#E7E6F5"/>
</linearGradient>
<linearGradient id="paint9_linear_529_284" x1="294.459" y1="95.4" x2="313.452" y2="95.4" gradientUnits="userSpaceOnUse">
<stop stop-color="#F8F6F7"/>
<stop offset="0.179" stop-color="#F8F6F7"/>
<stop offset="1" stop-color="#E7E6F5"/>
</linearGradient>
<linearGradient id="paint10_linear_529_284" x1="306.925" y1="98.7295" x2="309.946" y2="98.7295" gradientUnits="userSpaceOnUse">
<stop stop-color="#F8F6F7"/>
<stop offset="1" stop-color="#D1CEEB"/>
</linearGradient>
<clipPath id="clip0_529_284">
<rect width="58" height="58" fill="white" transform="translate(64 146)"/>
</clipPath>
<clipPath id="clip1_529_284">
<rect width="44" height="44" fill="white" transform="translate(281 64)"/>
</clipPath>
</defs>
</svg>
