<svg width="36" height="36" viewBox="0 0 36 36" fill="none" xmlns="http://www.w3.org/2000/svg">
<circle cx="18" cy="18" r="17.5" stroke="white"/>
<path d="M17.9978 15.1984C16.4554 15.1984 15.1967 16.4572 15.1967 17.9996C15.1967 19.5421 16.4554 20.8008 17.9978 20.8008C19.5403 20.8008 20.799 19.5421 20.799 17.9996C20.799 16.4572 19.5403 15.1984 17.9978 15.1984ZM26.3992 17.9996C26.3992 16.8396 26.4097 15.6901 26.3445 14.5323C26.2794 13.1874 25.9726 11.9938 24.9891 11.0103C24.0036 10.0247 22.8121 9.72002 21.4672 9.65487C20.3073 9.58973 19.1578 9.60023 17.9999 9.60023C16.84 9.60023 15.6905 9.58973 14.5327 9.65487C13.1878 9.72002 11.9942 10.0268 11.0107 11.0103C10.0252 11.9959 9.7205 13.1874 9.65536 14.5323C9.59022 15.6922 9.60072 16.8417 9.60072 17.9996C9.60072 19.1575 9.59022 20.3091 9.65536 21.467C9.7205 22.8119 10.0273 24.0055 11.0107 24.9889C11.9963 25.9745 13.1878 26.2792 14.5327 26.3443C15.6926 26.4095 16.8421 26.399 17.9999 26.399C19.1599 26.399 20.3094 26.4095 21.4672 26.3443C22.8121 26.2792 24.0057 25.9724 24.9891 24.9889C25.9747 24.0034 26.2794 22.8119 26.3445 21.467C26.4118 20.3091 26.3992 19.1596 26.3992 17.9996ZM17.9978 22.3096C15.6128 22.3096 13.6879 20.3847 13.6879 17.9996C13.6879 15.6145 15.6128 13.6896 17.9978 13.6896C20.3829 13.6896 22.3078 15.6145 22.3078 17.9996C22.3078 20.3847 20.3829 22.3096 17.9978 22.3096ZM22.4843 14.5197C21.9274 14.5197 21.4777 14.07 21.4777 13.5131C21.4777 12.9562 21.9274 12.5065 22.4843 12.5065C23.0412 12.5065 23.4908 12.9562 23.4908 13.5131C23.491 13.6453 23.4651 13.7763 23.4146 13.8985C23.364 14.0207 23.2899 14.1317 23.1964 14.2252C23.1029 14.3187 22.9919 14.3928 22.8697 14.4434C22.7475 14.4939 22.6165 14.5198 22.4843 14.5197Z" fill="white"/>
</svg>
