<svg width="36" height="36" viewBox="0 0 36 36" fill="none" xmlns="http://www.w3.org/2000/svg">
<circle cx="18" cy="18" r="17.5" stroke="white"/>
<path d="M14.0323 26.4001V15.605H10.6025V26.4001H14.0323ZM12.3178 14.1302C13.5139 14.1302 14.2583 13.3012 14.2583 12.2653C14.236 11.2061 13.5139 10.4001 12.3405 10.4001C11.1673 10.4001 10.4001 11.2061 10.4001 12.2653C10.4001 13.3013 11.1444 14.1302 12.2954 14.1302H12.3177H12.3178ZM15.9306 26.4001H19.3604V20.3716C19.3604 20.049 19.3827 19.7266 19.4733 19.496C19.7212 18.8514 20.2855 18.1837 21.233 18.1837C22.4741 18.1837 22.9706 19.1737 22.9706 20.6249V26.4001H26.4001V20.2102C26.4001 16.8944 24.7081 15.3515 22.4515 15.3515C20.6013 15.3515 19.7889 16.4335 19.3376 17.1704H19.3605V15.6047H15.9307C15.9757 16.6177 15.9307 26.3999 15.9307 26.3999L15.9306 26.4001Z" fill="white"/>
</svg>
