<svg width="36" height="36" viewBox="0 0 36 36" fill="none" xmlns="http://www.w3.org/2000/svg">
<circle cx="18" cy="18" r="17.5" stroke="white"/>
<path d="M27.9998 12.3007C27.2937 12.6132 26.5254 12.838 25.7339 12.9256C26.5556 12.4249 27.171 11.6338 27.4645 10.7007C26.6934 11.1713 25.8487 11.5012 24.9679 11.6759C24.5997 11.2722 24.1544 10.9505 23.6598 10.7311C23.1652 10.5116 22.6318 10.3989 22.0928 10.4002C19.9123 10.4002 18.1587 12.2132 18.1587 14.438C18.1587 14.7504 18.1956 15.0629 18.2556 15.3635C14.9906 15.1883 12.0786 13.5883 10.1427 11.1386C9.78997 11.7566 9.60512 12.4603 9.6074 13.1765C9.6074 14.5777 10.3019 15.8132 11.361 16.5398C10.7369 16.5146 10.1274 16.3386 9.58202 16.0262V16.0759C9.58202 18.038 10.9342 19.6641 12.7363 20.038C12.3979 20.1282 12.0498 20.1743 11.7002 20.1753C11.4441 20.1753 11.2018 20.1493 10.9572 20.1138C11.4556 21.7138 12.907 22.8759 14.6353 22.9138C13.2831 24.0001 11.5895 24.6392 9.75046 24.6392C9.4205 24.6392 9.11592 24.6274 8.7998 24.5895C10.5442 25.7374 12.614 26.4001 14.8429 26.4001C22.079 26.4001 26.0385 20.251 26.0385 14.9138C26.0385 14.7386 26.0385 14.5635 26.027 14.3883C26.793 13.8132 27.4645 13.1007 27.9998 12.3007Z" fill="white"/>
</svg>
